<svg xmlns="http://www.w3.org/2000/svg" width="928.938" height="723.798" viewBox="0 0 928.938 723.798"><defs><style>.a{fill:#edf3fa;}.b{fill:#c9e0f5;}.c{fill:#a5cbef;}.d{fill:#7ea7df;}.e{fill:#fff;}</style></defs><path class="a" d="M1491.043,1001.936c-30.86-54.189-29.366-121.56-14.754-182.267,7.335-30.473,17.757-60.424,20.424-91.664,5.716-66.94-26.554-134.1-77.637-177.442H1024.8c-.076.018-.153.042-.23.06-10.022,2.447-24.174-.06-34.7-.06H718.509a17.834,17.834,0,0,0-2.152,3.35,18.4,18.4,0,0,0-1.3,3.542v675.617C791.187,1381.6,1536.676,1082.066,1491.043,1001.936Z" transform="translate(-715.058 -550)"/><rect class="b" width="232.983" height="631.52" transform="translate(0 0)"/><rect class="b" width="232.983" height="631.52" transform="translate(236.313 0)"/><path class="b" d="M1515.04,584.5a246.483,246.483,0,0,0-33.146-33.941H1282.058V1181.52H1515.04Z" transform="translate(-773.077 -550)"/><path class="b" d="M1545.308,632.532c16.357,34.255,24.4,72.151,21.15,109.985-2.775,32.279-13.254,63.286-21.15,94.728Zm14.973,406.32a189.594,189.594,0,0,1-14.973-33.3V1181.52h194.328C1673,1139.533,1598.807,1106.04,1560.281,1038.852Z" transform="translate(-810.698 -550)"/><path class="c" d="M948.04,1181.52V860.838H880.433v103.95H715.058V1181.52Z" transform="translate(-715.058 -586.486)"/><path class="c" d="M1211.29,840.636l-151-145.793V860.838H978.308V1181.52H1211.29Z" transform="translate(-741.995 -574.881)"/><path class="c" d="M1515.04,796.938H1346.419l-.658,165.984-63.7-58.661V1181.52H1515.04Z" transform="translate(-773.077 -582.579)"/><g transform="translate(734.61 214.567)"><path class="c" d="M1545.308,837.245c3.364-13.4,7.2-26.714,10.7-40.084h-10.7Z" transform="translate(-1545.308 -797.161)"/><path class="c" d="M1560.281,1038.852a189.594,189.594,0,0,1-14.973-33.3V1181.52h194.328C1673,1139.533,1598.807,1106.04,1560.281,1038.852Z" transform="translate(-1545.308 -797.161)"/></g><rect class="d" width="152.208" height="16.117" transform="translate(80.775 420.053)"/><rect class="d" width="152.208" height="16.117" transform="translate(80.775 458.676)"/><rect class="d" width="152.208" height="16.117" transform="translate(80.775 497.3)"/><rect class="d" width="152.208" height="16.117" transform="translate(80.775 535.923)"/><rect class="d" width="152.208" height="16.117" transform="translate(80.775 574.547)"/><rect class="d" width="232.983" height="16.117" transform="translate(236.313 420.053)"/><rect class="d" width="232.983" height="16.117" transform="translate(236.313 458.676)"/><rect class="d" width="232.983" height="16.117" transform="translate(236.313 497.3)"/><rect class="d" width="232.983" height="16.117" transform="translate(236.313 535.923)"/><rect class="d" width="232.983" height="16.117" transform="translate(236.313 574.547)"/><rect class="d" width="232.983" height="16.117" transform="translate(508.981 420.053)"/><rect class="d" width="232.983" height="16.117" transform="translate(508.981 458.676)"/><rect class="d" width="232.983" height="16.117" transform="translate(508.981 497.3)"/><rect class="d" width="232.983" height="16.117" transform="translate(508.981 535.923)"/><rect class="d" width="232.983" height="16.117" transform="translate(508.981 574.547)"/><rect class="d" width="80.775" height="216.733" transform="translate(0 373.507)"/><path class="e" d="M1282.058,752.833h113.417A29.884,29.884,0,0,0,1348,724.816c.638-7.251-4.63-14.108-11.276-17.078s-14.321-2.684-21.444-1.18a31.467,31.467,0,0,0-10.212,3.741c-4.687,2.916-7.973,7.57-11.13,12.1L1283.9,736.791q-.916-.348-1.844-.683Z" transform="translate(-766.509 -562.398)"/><path class="e" d="M844.183,808.237A20,20,0,0,0,812.4,789.484c.427-4.853-3.1-9.443-7.547-11.431s-9.586-1.8-14.354-.79a21.072,21.072,0,0,0-6.835,2.5c-3.137,1.952-5.337,5.067-7.45,8.1L769.5,797.5c-4.374-1.662-9.022-3.093-13.665-2.511s-14.265,8.672-15.241,13.248Z" transform="translate(-715.058 -567.74)"/><path class="e" d="M1505.845,640.188a9.657,9.657,0,0,0-15.343-9.054,5.858,5.858,0,0,0-3.644-5.52,11.328,11.328,0,0,0-6.93-.381,10.164,10.164,0,0,0-3.3,1.209,13.268,13.268,0,0,0-3.6,3.91L1469.789,635a13.969,13.969,0,0,0-6.6-1.211c-2.242.281-6.887,4.186-7.359,6.4Z" transform="translate(-778.453 -550)"/></svg>