<svg xmlns="http://www.w3.org/2000/svg" xmlns:xlink="http://www.w3.org/1999/xlink" width="551.146" height="691.163" viewBox="0 0 551.146 691.163"><defs><style>.a{opacity:0.7;}.aa,.ab,.ac,.ad,.ae,.af,.ag,.ah,.ai,.aj,.ak,.al,.am,.an,.ao,.ap,.aq,.b,.bk,.bl,.bm,.bn,.bo,.bp,.bq,.br,.bs,.bt,.bu,.bv,.bw,.bx,.by,.bz,.c,.ca,.cb,.cc,.cd,.ce,.cf,.cg,.ch,.ci,.cj,.ck,.cl,.cm,.cn,.co,.cp,.cq,.cr,.cs,.ct,.cu,.cv,.cw,.cx,.cy,.cz,.d,.da,.db,.dc,.dd,.de,.df,.dg,.dh,.e,.f,.g,.h,.i,.j,.k,.l,.m,.n,.o,.p,.q,.r,.s,.t,.u,.v,.w,.x,.y,.z{fill:#3c5185;}.b{opacity:0;}.c{opacity:0.024;}.d{opacity:0.049;}.e{opacity:0.073;}.f{opacity:0.098;}.g{opacity:0.122;}.h{opacity:0.146;}.i{opacity:0.171;}.j{opacity:0.195;}.k{opacity:0.22;}.l{opacity:0.244;}.m{opacity:0.268;}.n{opacity:0.293;}.o{opacity:0.317;}.p{opacity:0.341;}.q{opacity:0.366;}.r{opacity:0.39;}.s{opacity:0.415;}.t{opacity:0.439;}.u{opacity:0.463;}.v{opacity:0.488;}.w{opacity:0.512;}.x{opacity:0.537;}.y{opacity:0.561;}.z{opacity:0.585;}.aa{opacity:0.61;}.ab{opacity:0.634;}.ac{opacity:0.659;}.ad{opacity:0.683;}.ae{opacity:0.707;}.af{opacity:0.732;}.ag{opacity:0.756;}.ah{opacity:0.78;}.ai{opacity:0.805;}.aj{opacity:0.829;}.ak{opacity:0.854;}.al{opacity:0.878;}.am{opacity:0.902;}.an{opacity:0.927;}.ao{opacity:0.951;}.ap{opacity:0.976;}.ar{fill:url(#a);}.as{fill:#edf3fa;}.at{fill:url(#b);}.au{fill:#fff;}.av{fill:#d1e1f2;}.aw{fill:#f2b1b5;}.ax{fill:url(#c);}.ay{fill:url(#d);}.az{fill:url(#e);}.ba{fill:url(#f);}.bb{fill:url(#g);}.bc{fill:url(#h);}.bd{fill:url(#i);}.be{fill:#4a65a3;}.bf{fill:url(#j);}.bg{fill:url(#k);}.bh{fill:url(#l);}.bi{fill:url(#m);}.bj{opacity:0.3;}.bk{opacity:0.02;}.bl{opacity:0.039;}.bm{opacity:0.059;}.bn{opacity:0.078;}.bo{opacity:0.098;}.bp{opacity:0.118;}.bq{opacity:0.137;}.br{opacity:0.157;}.bs{opacity:0.176;}.bt{opacity:0.196;}.bu{opacity:0.216;}.bv{opacity:0.235;}.bw{opacity:0.255;}.bx{opacity:0.275;}.by{opacity:0.294;}.bz{opacity:0.314;}.ca{opacity:0.333;}.cb{opacity:0.353;}.cc{opacity:0.373;}.cd{opacity:0.392;}.ce{opacity:0.412;}.cf{opacity:0.431;}.cg{opacity:0.451;}.ch{opacity:0.471;}.ci{opacity:0.49;}.cj{opacity:0.51;}.ck{opacity:0.529;}.cl{opacity:0.549;}.cm{opacity:0.569;}.cn{opacity:0.588;}.co{opacity:0.608;}.cp{opacity:0.627;}.cq{opacity:0.647;}.cr{opacity:0.667;}.cs{opacity:0.686;}.ct{opacity:0.706;}.cu{opacity:0.725;}.cv{opacity:0.745;}.cw{opacity:0.765;}.cx{opacity:0.784;}.cy{opacity:0.804;}.cz{opacity:0.824;}.da{opacity:0.843;}.db{opacity:0.863;}.dc{opacity:0.882;}.dd{opacity:0.902;}.de{opacity:0.922;}.df{opacity:0.941;}.dg{opacity:0.961;}.dh{opacity:0.98;}.di{fill:url(#n);}.dj{fill:url(#o);}.dk{fill:url(#p);}.dl{fill:url(#q);}.dm{fill:#f6f9fc;}.dn{fill:url(#t);}.do{fill:url(#u);}</style><linearGradient id="a" y1="0.5" x2="1" y2="0.5" gradientUnits="objectBoundingBox"><stop offset="0" stop-color="#fff"/><stop offset="0.396" stop-color="#d5e6f7"/><stop offset="0.786" stop-color="#b2d2f1"/><stop offset="0.996" stop-color="#a5cbef"/></linearGradient><linearGradient id="b" y1="0.5" x2="1" y2="0.5" gradientUnits="objectBoundingBox"><stop offset="0.004" stop-color="#a5cbef"/><stop offset="0.214" stop-color="#b2d2f1"/><stop offset="0.604" stop-color="#d5e6f7"/><stop offset="1" stop-color="#fff"/></linearGradient><linearGradient id="c" x1="18.516" y1="0.5" x2="19.516" y2="0.5" gradientUnits="objectBoundingBox"><stop offset="0" stop-color="#4a65a3"/><stop offset="0.4" stop-color="#435b95"/><stop offset="1" stop-color="#3c5185"/></linearGradient><linearGradient id="d" x1="21.775" y1="0.5" x2="22.775" y2="0.5" gradientUnits="objectBoundingBox"><stop offset="0.15" stop-color="#ff9800"/><stop offset="1" stop-color="#ffc107"/></linearGradient><linearGradient id="e" x1="27.45" y1="0.5" x2="28.45" y2="0.5" xlink:href="#c"/><linearGradient id="f" x1="0" y1="0.5" x2="1" y2="0.5" xlink:href="#d"/><linearGradient id="g" x1="13.13" y1="0.942" x2="12.361" y2="0.246" gradientUnits="objectBoundingBox"><stop offset="0" stop-color="#3c5185"/><stop offset="0.128" stop-color="#41578d"/><stop offset="0.695" stop-color="#5572b0"/><stop offset="1" stop-color="#5d7dbe"/></linearGradient><linearGradient id="h" x1="14.119" y1="-0.093" x2="13.027" y2="1.18" gradientUnits="objectBoundingBox"><stop offset="0" stop-color="#5d7dbe"/><stop offset="0.305" stop-color="#5572b0"/><stop offset="0.872" stop-color="#41578d"/><stop offset="1" stop-color="#3c5185"/></linearGradient><linearGradient id="i" y1="0.5" x2="1" y2="0.5" gradientUnits="objectBoundingBox"><stop offset="0" stop-color="#a8d9fb"/><stop offset="1" stop-color="#fff"/></linearGradient><linearGradient id="j" y1="0.5" x2="1.777" y2="0.5" gradientUnits="objectBoundingBox"><stop offset="0" stop-color="#3c5185"/><stop offset="0.4" stop-color="#4d68a3"/><stop offset="0.757" stop-color="#5877b6"/><stop offset="1" stop-color="#5d7dbe"/></linearGradient><linearGradient id="k" y1="0.5" x2="1" y2="0.5" gradientUnits="objectBoundingBox"><stop offset="0" stop-color="#a8d9fb"/><stop offset="0.048" stop-color="#b3ddfb"/><stop offset="0.189" stop-color="#cee9fc"/><stop offset="0.342" stop-color="#e4f3fd"/><stop offset="0.511" stop-color="#f3f9fe"/><stop offset="0.708" stop-color="#fcfdfe"/><stop offset="1" stop-color="#fff"/></linearGradient><linearGradient id="l" x1="-56.305" y1="0.5" x2="-55.305" y2="0.5" xlink:href="#d"/><linearGradient id="m" x1="-67.508" y1="0.5" x2="-66.508" y2="0.5" xlink:href="#d"/><linearGradient id="n" y1="0.5" x2="1" y2="0.5" gradientUnits="objectBoundingBox"><stop offset="0" stop-color="#3c5185"/><stop offset="0.6" stop-color="#435b95"/><stop offset="1" stop-color="#4a65a3"/></linearGradient><linearGradient id="o" x1="0" y1="0.5" x2="1" y2="0.5" xlink:href="#c"/><linearGradient id="p" y1="0.5" x2="1" y2="0.5" gradientUnits="objectBoundingBox"><stop offset="0" stop-color="#7ea7df"/><stop offset="1" stop-color="#fff"/></linearGradient><linearGradient id="q" x1="0.001" y1="0.5" x2="0.999" y2="0.5" gradientUnits="objectBoundingBox"><stop offset="0" stop-color="#ecf2fa"/><stop offset="1" stop-color="#7ea7df"/></linearGradient><linearGradient id="t" x1="2.74" y1="0.5" x2="3.74" y2="0.5" gradientUnits="objectBoundingBox"><stop offset="0" stop-color="#fff"/><stop offset="0.243" stop-color="#edf5fb"/><stop offset="0.723" stop-color="#c1dbf4"/><stop offset="0.996" stop-color="#a5cbef"/></linearGradient><linearGradient id="u" x1="0" y1="0.5" x2="1" y2="0.5" xlink:href="#g"/></defs><g transform="translate(383 -136.791)"><g transform="translate(-376 139.038)"><g transform="translate(18.891 71.52)"><g class="a" transform="translate(0 232.1)"><path class="b" d="M358.915,203.164,185.463,314.23a6.7,6.7,0,0,0-.021,10.934L455.5,499.821a20.318,20.318,0,0,0,22.295.054L651.251,388.808a6.7,6.7,0,0,0,.021-10.935L381.211,203.216A20.316,20.316,0,0,0,358.915,203.164Z" transform="translate(-182.628 -199.858)"/><path class="c" d="M359.118,203.343,186.257,314.073a6.684,6.684,0,0,0-.021,10.9L455.377,499.1a20.242,20.242,0,0,0,22.219.053L650.458,388.423a6.685,6.685,0,0,0,.021-10.9L381.338,203.4A20.242,20.242,0,0,0,359.118,203.343Z" transform="translate(-182.628 -199.858)"/><path class="d" d="M359.321,203.523,187.051,313.915a6.665,6.665,0,0,0-.021,10.868L455.251,498.376a20.163,20.163,0,0,0,22.142.054L649.664,388.038a6.665,6.665,0,0,0,.021-10.868L381.464,203.577A20.165,20.165,0,0,0,359.321,203.523Z" transform="translate(-182.628 -199.858)"/><path class="e" d="M359.524,203.7,187.844,313.758a6.645,6.645,0,0,0-.021,10.834l267.3,173.062a20.091,20.091,0,0,0,22.068.053L648.87,387.653a6.646,6.646,0,0,0,.022-10.834l-267.3-173.063A20.087,20.087,0,0,0,359.524,203.7Z" transform="translate(-182.628 -199.858)"/><path class="f" d="M359.726,203.883,188.638,313.6a6.626,6.626,0,0,0-.021,10.8L455,496.932a20.017,20.017,0,0,0,21.992.053L648.076,387.268a6.627,6.627,0,0,0,.021-10.8L381.716,203.936A20.014,20.014,0,0,0,359.726,203.883Z" transform="translate(-182.628 -199.858)"/><path class="g" d="M359.928,204.064l-170.5,109.378a6.608,6.608,0,0,0-.02,10.768l265.46,172a19.94,19.94,0,0,0,21.915.054l170.5-109.379a6.608,6.608,0,0,0,.021-10.768l-265.46-172A19.938,19.938,0,0,0,359.928,204.064Z" transform="translate(-182.628 -199.858)"/><path class="h" d="M360.131,204.244,190.225,313.284a6.589,6.589,0,0,0-.021,10.735L454.745,495.486a19.861,19.861,0,0,0,21.838.054L646.49,386.5a6.589,6.589,0,0,0,.021-10.735L381.971,204.3A19.862,19.862,0,0,0,360.131,204.244Z" transform="translate(-182.628 -199.858)"/><path class="i" d="M360.334,204.424l-169.315,108.7a6.569,6.569,0,0,0-.02,10.7L454.617,494.765a19.791,19.791,0,0,0,21.764.052L645.7,386.114a6.57,6.57,0,0,0,.021-10.7L382.1,204.476A19.787,19.787,0,0,0,360.334,204.424Z" transform="translate(-182.628 -199.858)"/><path class="j" d="M360.536,204.6,191.812,312.968a6.551,6.551,0,0,0-.02,10.668l262.7,170.406a19.714,19.714,0,0,0,21.687.053L644.9,385.731a6.552,6.552,0,0,0,.02-10.669l-262.7-170.406A19.712,19.712,0,0,0,360.536,204.6Z" transform="translate(-182.628 -199.858)"/><path class="k" d="M360.738,204.784,192.606,312.81a6.531,6.531,0,0,0-.02,10.635L454.364,493.32a19.64,19.64,0,0,0,21.612.052L644.108,385.346a6.533,6.533,0,0,0,.022-10.636L382.35,204.836A19.638,19.638,0,0,0,360.738,204.784Z" transform="translate(-182.628 -199.858)"/><path class="l" d="M360.941,204.964,193.4,312.653a6.514,6.514,0,0,0-.021,10.6L454.239,492.6a19.561,19.561,0,0,0,21.534.052L643.315,384.961a6.514,6.514,0,0,0,.021-10.6L382.477,205.016A19.564,19.564,0,0,0,360.941,204.964Z" transform="translate(-182.628 -199.858)"/><path class="m" d="M361.144,205.144,194.193,312.495a6.5,6.5,0,0,0-.02,10.569L454.111,491.876a19.489,19.489,0,0,0,21.46.051l166.951-107.35a6.5,6.5,0,0,0,.021-10.569L382.6,205.2A19.485,19.485,0,0,0,361.144,205.144Z" transform="translate(-182.628 -199.858)"/><path class="n" d="M361.347,205.324,194.986,312.337a6.475,6.475,0,0,0-.02,10.535L453.985,491.153a19.408,19.408,0,0,0,21.383.051l166.36-107.013a6.475,6.475,0,0,0,.02-10.535L382.729,205.376A19.41,19.41,0,0,0,361.347,205.324Z" transform="translate(-182.628 -199.858)"/><path class="o" d="M361.549,205.5,195.78,312.179a6.457,6.457,0,0,0-.02,10.5l258.1,167.749a19.338,19.338,0,0,0,21.308.052L640.934,383.807a6.455,6.455,0,0,0,.02-10.5l-258.1-167.75A19.336,19.336,0,0,0,361.549,205.5Z" transform="translate(-182.628 -199.858)"/><path class="p" d="M361.752,205.685,196.573,312.021a6.438,6.438,0,0,0-.02,10.469L453.732,489.709a19.263,19.263,0,0,0,21.231.051L640.141,383.422a6.438,6.438,0,0,0,.02-10.469L382.983,205.735A19.263,19.263,0,0,0,361.752,205.685Z" transform="translate(-182.628 -199.858)"/><path class="q" d="M361.953,205.865l-164.586,106a6.417,6.417,0,0,0-.02,10.435L453.6,488.986a19.184,19.184,0,0,0,21.155.051l164.587-106a6.418,6.418,0,0,0,.021-10.435L383.109,205.916A19.185,19.185,0,0,0,361.953,205.865Z" transform="translate(-182.628 -199.858)"/><path class="r" d="M362.156,206.045l-164,105.661a6.4,6.4,0,0,0-.02,10.4L453.478,488.264a19.112,19.112,0,0,0,21.08.051l164-105.662a6.4,6.4,0,0,0,.02-10.4L383.236,206.1A19.112,19.112,0,0,0,362.156,206.045Z" transform="translate(-182.628 -199.858)"/><path class="s" d="M362.359,206.225,198.954,311.548a6.381,6.381,0,0,0-.02,10.37L453.352,487.542a19.035,19.035,0,0,0,21,.05L637.761,382.269a6.382,6.382,0,0,0,.019-10.37L383.363,206.276A19.032,19.032,0,0,0,362.359,206.225Z" transform="translate(-182.628 -199.858)"/><path class="t" d="M362.561,206.4,199.748,311.391a6.361,6.361,0,0,0-.02,10.335l253.5,165.093a18.959,18.959,0,0,0,20.928.051L636.966,381.884a6.362,6.362,0,0,0,.02-10.336l-253.5-165.093A18.959,18.959,0,0,0,362.561,206.4Z" transform="translate(-182.628 -199.858)"/><path class="u" d="M362.764,206.584,200.541,311.233a6.343,6.343,0,0,0-.02,10.3L453.1,486.1a18.887,18.887,0,0,0,20.852.051L636.173,381.5a6.343,6.343,0,0,0,.02-10.3L383.616,206.635A18.885,18.885,0,0,0,362.764,206.584Z" transform="translate(-182.628 -199.858)"/><path class="v" d="M362.967,206.765,201.335,311.075a6.324,6.324,0,0,0-.019,10.269L452.972,485.375a18.81,18.81,0,0,0,20.776.05L635.38,381.115a6.325,6.325,0,0,0,.019-10.27L383.743,206.815A18.806,18.806,0,0,0,362.967,206.765Z" transform="translate(-182.628 -199.858)"/><path class="w" d="M363.169,206.945,202.129,310.917a6.3,6.3,0,0,0-.019,10.236l250.736,163.5a18.733,18.733,0,0,0,20.7.05L634.586,380.73a6.306,6.306,0,0,0,.019-10.236l-250.736-163.5A18.733,18.733,0,0,0,363.169,206.945Z" transform="translate(-182.628 -199.858)"/><path class="x" d="M363.372,207.125,202.922,310.759a6.286,6.286,0,0,0-.019,10.2L452.718,483.929a18.659,18.659,0,0,0,20.625.051L633.792,380.346a6.287,6.287,0,0,0,.02-10.2L384,207.175A18.657,18.657,0,0,0,363.372,207.125Z" transform="translate(-182.628 -199.858)"/><path class="y" d="M363.575,207.3,203.715,310.6a6.266,6.266,0,0,0-.019,10.169l248.9,162.437a18.587,18.587,0,0,0,20.549.05L633,379.96a6.266,6.266,0,0,0,.019-10.168l-248.9-162.437A18.582,18.582,0,0,0,363.575,207.3Z" transform="translate(-182.628 -199.858)"/><path class="z" d="M363.776,207.485,204.509,310.444a6.248,6.248,0,0,0-.019,10.136l247.975,161.9a18.508,18.508,0,0,0,20.472.05L632.2,379.576a6.249,6.249,0,0,0,.02-10.136l-247.976-161.9A18.51,18.51,0,0,0,363.776,207.485Z" transform="translate(-182.628 -199.858)"/><path class="aa" d="M363.979,207.666,205.3,310.286a6.228,6.228,0,0,0-.019,10.1L452.34,481.763a18.433,18.433,0,0,0,20.4.05L631.412,379.192a6.229,6.229,0,0,0,.019-10.1L384.375,207.715A18.431,18.431,0,0,0,363.979,207.666Z" transform="translate(-182.628 -199.858)"/><path class="ab" d="M364.182,207.846,206.1,310.129a6.21,6.21,0,0,0-.019,10.069L452.213,481.04a18.352,18.352,0,0,0,20.319.05L630.618,378.807a6.211,6.211,0,0,0,.019-10.07L384.5,207.9A18.354,18.354,0,0,0,364.182,207.846Z" transform="translate(-182.628 -199.858)"/><path class="ac" d="M364.385,208.026,206.89,309.971a6.191,6.191,0,0,0-.019,10.036L452.086,480.318a18.282,18.282,0,0,0,20.244.05L629.824,378.423a6.192,6.192,0,0,0,.02-10.037L384.628,208.075A18.279,18.279,0,0,0,364.385,208.026Z" transform="translate(-182.628 -199.858)"/><path class="ad" d="M364.587,208.206l-156.9,101.607a6.172,6.172,0,0,0-.018,10L451.959,479.6a18.207,18.207,0,0,0,20.168.049l156.9-101.607a6.173,6.173,0,0,0,.019-10l-244.3-159.78A18.2,18.2,0,0,0,364.587,208.206Z" transform="translate(-182.628 -199.858)"/><path class="ae" d="M364.79,208.386,208.477,309.655a6.154,6.154,0,0,0-.019,9.97L451.833,478.873a18.128,18.128,0,0,0,20.092.049L628.238,377.653a6.155,6.155,0,0,0,.019-9.97L384.881,208.434A18.13,18.13,0,0,0,364.79,208.386Z" transform="translate(-182.628 -199.858)"/><path class="af" d="M364.992,208.566,209.271,309.5a6.134,6.134,0,0,0-.019,9.937L451.706,478.152a18.058,18.058,0,0,0,20.016.048L627.444,377.268a6.134,6.134,0,0,0,.019-9.936L385.009,208.614A18.058,18.058,0,0,0,364.992,208.566Z" transform="translate(-182.628 -199.858)"/><path class="ag" d="M365.194,208.746,210.064,309.34a6.115,6.115,0,0,0-.019,9.9L451.58,477.429a17.977,17.977,0,0,0,19.939.048L626.65,376.884a6.116,6.116,0,0,0,.019-9.9L385.135,208.794A17.982,17.982,0,0,0,365.194,208.746Z" transform="translate(-182.628 -199.858)"/><path class="ah" d="M365.4,208.926,210.858,309.182a6.1,6.1,0,0,0-.019,9.869L451.453,476.707a17.907,17.907,0,0,0,19.864.048L625.856,376.5a6.1,6.1,0,0,0,.02-9.871L385.261,208.974A17.9,17.9,0,0,0,365.4,208.926Z" transform="translate(-182.628 -199.858)"/><path class="ai" d="M365.6,209.106,211.651,309.024a6.077,6.077,0,0,0-.019,9.836L451.327,475.985a17.83,17.83,0,0,0,19.787.048l153.949-99.918a6.078,6.078,0,0,0,.019-9.837L385.387,209.153A17.83,17.83,0,0,0,365.6,209.106Z" transform="translate(-182.628 -199.858)"/><path class="aj" d="M365.8,209.286l-153.357,99.58a6.058,6.058,0,0,0-.018,9.8L451.2,475.262a17.755,17.755,0,0,0,19.712.048L624.27,375.73a6.059,6.059,0,0,0,.019-9.8L385.515,209.334A17.756,17.756,0,0,0,365.8,209.286Z" transform="translate(-182.628 -199.858)"/><path class="ak" d="M366.005,209.466,213.238,308.708a6.042,6.042,0,0,0-.018,9.771L451.073,474.54a17.685,17.685,0,0,0,19.637.048l152.766-99.243a6.04,6.04,0,0,0,.019-9.77L385.641,209.514A17.681,17.681,0,0,0,366.005,209.466Z" transform="translate(-182.628 -199.858)"/><path class="al" d="M366.207,209.646l-152.175,98.9a6.021,6.021,0,0,0-.018,9.737l236.932,155.53a17.6,17.6,0,0,0,19.56.047l152.176-98.9a6.021,6.021,0,0,0,.018-9.736L385.767,209.694A17.6,17.6,0,0,0,366.207,209.646Z" transform="translate(-182.628 -199.858)"/><path class="am" d="M366.41,209.827,214.825,308.393a6,6,0,0,0-.018,9.7l236.012,155a17.527,17.527,0,0,0,19.484.047l151.585-98.566a6,6,0,0,0,.018-9.7l-236.012-155A17.53,17.53,0,0,0,366.41,209.827Z" transform="translate(-182.628 -199.858)"/><path class="an" d="M366.613,210.007,215.62,308.236a5.982,5.982,0,0,0-.019,9.669L450.694,472.372a17.453,17.453,0,0,0,19.408.048l150.993-98.228a5.984,5.984,0,0,0,.019-9.671L386.021,210.054A17.453,17.453,0,0,0,366.613,210.007Z" transform="translate(-182.628 -199.858)"/><path class="ao" d="M366.815,210.187l-150.4,97.89a5.964,5.964,0,0,0-.018,9.637L450.567,471.651a17.381,17.381,0,0,0,19.333.047l150.4-97.892a5.964,5.964,0,0,0,.018-9.636L386.147,210.234A17.378,17.378,0,0,0,366.815,210.187Z" transform="translate(-182.628 -199.858)"/><path class="ap" d="M367.017,210.367l-149.81,97.552a5.945,5.945,0,0,0-.018,9.6l233.251,153.4a17.3,17.3,0,0,0,19.257.047l149.811-97.553a5.945,5.945,0,0,0,.019-9.6l-233.254-153.4A17.3,17.3,0,0,0,367.017,210.367Z" transform="translate(-182.628 -199.858)"/><path class="aq" d="M367.22,210.547,218,307.762a5.926,5.926,0,0,0-.018,9.57L450.314,470.206a17.228,17.228,0,0,0,19.18.047l149.22-97.216a5.926,5.926,0,0,0,.019-9.57L386.4,210.593A17.229,17.229,0,0,0,367.22,210.547Z" transform="translate(-182.628 -199.858)"/></g><g transform="translate(20.212 1)"><path class="ar" d="M675.452,113.584,408.676-47.514a5.411,5.411,0,0,0-8.109,4.9V167.669a12.4,12.4,0,0,0,5.876,10.644l266.775,161.1a5.41,5.41,0,0,0,8.109-4.9V124.228A12.4,12.4,0,0,0,675.452,113.584Z" transform="translate(-230.289 61.353)"/><path class="aq" d="M671.864,115.916,404.89-44.986a5.414,5.414,0,0,0-8.115,4.891V169.934a12.384,12.384,0,0,0,5.88,10.631l266.973,160.9c3.606,2.174,12.866,1.084,12.866-3.264V128.181C682.494,123.8,675.5,118.109,671.864,115.916Z" transform="translate(-226.497 58.825)"/><path class="as" d="M663.427,133.253,412.08-21.9V173.847L663.427,329Z" transform="translate(-228.565 60.026)"/><path class="at" d="M364.212,203.206,196.947,302.343s-.922,14.675,2.648,16.99L455.87,485.579a19.229,19.229,0,0,0,21.157.05l164.6-105.717c6.806-4.744,2.691-17.025,2.691-17.025L385.369,203.257A19.231,19.231,0,0,0,364.212,203.206Z" transform="translate(-196.84 32.242)"/><path class="au" d="M363.777,191.7,199.618,293.245a6.009,6.009,0,0,0-.02,10L455.19,462.918a19.8,19.8,0,0,0,21.1.05l164.16-101.542a6.011,6.011,0,0,0,.02-10L384.878,191.753A19.8,19.8,0,0,0,363.777,191.7Z" transform="translate(-196.934 43.62)"/><path class="av" d="M368.482,328.706l-48.741,27.862a1.582,1.582,0,0,0-.006,2.743l75.888,43.815a6.3,6.3,0,0,0,6.265.013l48.741-27.863a1.582,1.582,0,0,0,.006-2.743l-75.888-43.814A6.288,6.288,0,0,0,368.482,328.706Z" transform="matrix(0.999, 0.035, -0.035, 0.999, -206.992, 23.971)"/><g transform="matrix(0.999, 0.035, -0.035, 0.999, 105.065, 280.037)"><path class="av" d="M348.809,238.388l10.794-6.32a4.516,4.516,0,0,1,4.54-.014l10.543,6.087a2.244,2.244,0,0,1,.052,3.857l-10.485,6.437a4.511,4.511,0,0,1-4.615.064l-10.814-6.226A2.247,2.247,0,0,1,348.809,238.388Z" transform="translate(-330.699 -243.449)"/><path class="av" d="M372.978,252.3l10.794-6.321a4.518,4.518,0,0,1,4.54-.014l10.543,6.087a2.246,2.246,0,0,1,.051,3.858l-10.485,6.436a4.514,4.514,0,0,1-4.614.065l-10.815-6.228A2.245,2.245,0,0,1,372.978,252.3Z" transform="translate(-330.699 -243.449)"/><path class="av" d="M396.442,265.462l10.794-6.321a4.516,4.516,0,0,1,4.539-.013l10.544,6.087a2.246,2.246,0,0,1,.051,3.858l-10.484,6.436a4.515,4.515,0,0,1-4.616.065l-10.814-6.229A2.245,2.245,0,0,1,396.442,265.462Z" transform="translate(-330.699 -243.449)"/><path class="av" d="M421.4,279.059l10.794-6.32a4.514,4.514,0,0,1,4.539-.014l10.543,6.088a2.244,2.244,0,0,1,.052,3.857l-10.484,6.437a4.514,4.514,0,0,1-4.615.063l-10.815-6.227A2.246,2.246,0,0,1,421.4,279.059Z" transform="translate(-330.699 -243.449)"/><path class="av" d="M443.4,291.982l10.794-6.32a4.516,4.516,0,0,1,4.54-.013l10.542,6.086a2.246,2.246,0,0,1,.052,3.859l-10.484,6.435a4.514,4.514,0,0,1-4.615.065l-10.815-6.228A2.246,2.246,0,0,1,443.4,291.982Z" transform="translate(-330.699 -243.449)"/><path class="av" d="M465.74,305.817l10.8-6.32a4.514,4.514,0,0,1,4.539-.014l10.542,6.086a2.246,2.246,0,0,1,.053,3.859l-10.485,6.436a4.516,4.516,0,0,1-4.615.065L465.755,309.7A2.245,2.245,0,0,1,465.74,305.817Z" transform="translate(-330.699 -243.449)"/><path class="av" d="M489.617,318.9l10.795-6.32a4.514,4.514,0,0,1,4.539-.014l10.542,6.087a2.245,2.245,0,0,1,.053,3.858l-10.485,6.436a4.516,4.516,0,0,1-4.615.064l-10.815-6.227A2.246,2.246,0,0,1,489.617,318.9Z" transform="translate(-330.699 -243.449)"/><path class="av" d="M512.985,332.15l10.794-6.32a4.519,4.519,0,0,1,4.539-.015L538.86,331.9a2.245,2.245,0,0,1,.053,3.857L528.429,342.2a4.515,4.515,0,0,1-4.616.065L513,336.034A2.245,2.245,0,0,1,512.985,332.15Z" transform="translate(-330.699 -243.449)"/><path class="av" d="M535.959,346.24l10.794-6.32a4.514,4.514,0,0,1,4.54-.014l10.543,6.087a2.245,2.245,0,0,1,.052,3.858L551.4,356.287a4.513,4.513,0,0,1-4.615.064l-10.815-6.227A2.247,2.247,0,0,1,535.959,346.24Z" transform="translate(-330.699 -243.449)"/><path class="av" d="M560.991,360.982l10.794-6.32a4.516,4.516,0,0,1,4.539-.015l10.543,6.088a2.246,2.246,0,0,1,.052,3.858l-10.485,6.436a4.515,4.515,0,0,1-4.616.065l-10.813-6.228A2.246,2.246,0,0,1,560.991,360.982Z" transform="translate(-330.699 -243.449)"/><path class="av" d="M583.624,373.262l10.795-6.32a4.512,4.512,0,0,1,4.539-.014l10.543,6.086a2.246,2.246,0,0,1,.052,3.859l-10.484,6.436a4.518,4.518,0,0,1-4.616.065l-10.814-6.228A2.246,2.246,0,0,1,583.624,373.262Z" transform="translate(-330.699 -243.449)"/></g><g transform="matrix(0.999, 0.035, -0.035, 0.999, 86.034, 291.913)"><path class="av" d="M324.76,251.466l10.794-6.32a4.521,4.521,0,0,1,4.54-.015l10.542,6.088a2.244,2.244,0,0,1,.052,3.857L340.2,261.513a4.513,4.513,0,0,1-4.616.064l-10.814-6.227A2.246,2.246,0,0,1,324.76,251.466Z" transform="translate(-309.649 -255.527)"/><path class="av" d="M348.928,265.373l10.794-6.32a4.518,4.518,0,0,1,4.54-.014l10.543,6.087a2.245,2.245,0,0,1,.051,3.858l-10.483,6.436a4.517,4.517,0,0,1-4.617.065l-10.814-6.227A2.247,2.247,0,0,1,348.928,265.373Z" transform="translate(-309.649 -255.527)"/><path class="av" d="M372.392,278.54l10.794-6.32a4.518,4.518,0,0,1,4.54-.014l10.543,6.087a2.245,2.245,0,0,1,.051,3.858l-10.484,6.436a4.511,4.511,0,0,1-4.615.064l-10.815-6.228A2.245,2.245,0,0,1,372.392,278.54Z" transform="translate(-309.649 -255.527)"/><path class="av" d="M397.354,292.138l10.794-6.321a4.518,4.518,0,0,1,4.54-.014l10.543,6.087a2.246,2.246,0,0,1,.052,3.859L412.8,302.185a4.516,4.516,0,0,1-4.615.064l-10.815-6.228A2.245,2.245,0,0,1,397.354,292.138Z" transform="translate(-309.649 -255.527)"/><path class="av" d="M419.347,305.06l10.793-6.32a4.514,4.514,0,0,1,4.539-.013l10.544,6.086a2.246,2.246,0,0,1,.051,3.859l-10.484,6.435a4.514,4.514,0,0,1-4.615.065l-10.815-6.228A2.246,2.246,0,0,1,419.347,305.06Z" transform="translate(-309.649 -255.527)"/><path class="av" d="M441.691,318.895l10.794-6.32a4.518,4.518,0,0,1,4.54-.014l10.542,6.087a2.246,2.246,0,0,1,.052,3.859l-10.485,6.435a4.516,4.516,0,0,1-4.615.065L441.7,322.778A2.245,2.245,0,0,1,441.691,318.895Z" transform="translate(-309.649 -255.527)"/><path class="av" d="M465.568,331.981l10.794-6.32a4.516,4.516,0,0,1,4.54-.015l10.542,6.088a2.245,2.245,0,0,1,.052,3.857l-10.484,6.437a4.515,4.515,0,0,1-4.616.065l-10.814-6.228A2.246,2.246,0,0,1,465.568,331.981Z" transform="translate(-309.649 -255.527)"/><path class="av" d="M488.935,345.229l10.794-6.321a4.516,4.516,0,0,1,4.539-.014l10.544,6.087a2.246,2.246,0,0,1,.051,3.858l-10.484,6.436a4.517,4.517,0,0,1-4.617.065l-10.814-6.229A2.244,2.244,0,0,1,488.935,345.229Z" transform="translate(-309.649 -255.527)"/><path class="av" d="M511.91,359.318,522.7,353a4.514,4.514,0,0,1,4.54-.014l10.542,6.087a2.245,2.245,0,0,1,.052,3.858l-10.484,6.436a4.518,4.518,0,0,1-4.616.064L511.923,363.2A2.245,2.245,0,0,1,511.91,359.318Z" transform="translate(-309.649 -255.527)"/><path class="av" d="M536.941,374.061l10.794-6.321a4.516,4.516,0,0,1,4.539-.014l10.543,6.087a2.246,2.246,0,0,1,.052,3.858l-10.484,6.436a4.516,4.516,0,0,1-4.615.065l-10.815-6.228A2.245,2.245,0,0,1,536.941,374.061Z" transform="translate(-309.649 -255.527)"/><path class="av" d="M559.575,386.34l10.794-6.32a4.516,4.516,0,0,1,4.54-.014l10.542,6.086a2.246,2.246,0,0,1,.053,3.859l-10.485,6.436a4.511,4.511,0,0,1-4.615.064l-10.815-6.228A2.245,2.245,0,0,1,559.575,386.34Z" transform="translate(-309.649 -255.527)"/></g><g transform="matrix(0.999, 0.035, -0.035, 0.999, 70.395, 292.62)"><path class="av" d="M300.71,264.544l10.794-6.321a4.514,4.514,0,0,1,4.539-.014l10.544,6.088a2.244,2.244,0,0,1,.051,3.857l-10.484,6.437a4.514,4.514,0,0,1-4.615.064l-10.815-6.228A2.245,2.245,0,0,1,300.71,264.544Z" transform="translate(-292.599 -254.604)"/><path class="av" d="M324.879,278.451l10.794-6.319a4.516,4.516,0,0,1,4.539-.016l10.542,6.088a2.245,2.245,0,0,1,.053,3.858L340.323,288.5a4.513,4.513,0,0,1-4.616.065l-10.814-6.227A2.246,2.246,0,0,1,324.879,278.451Z" transform="translate(-292.599 -254.604)"/><path class="av" d="M348.343,291.618l10.794-6.32a4.509,4.509,0,0,1,4.539-.014l10.543,6.087a2.246,2.246,0,0,1,.052,3.858l-10.485,6.436a4.511,4.511,0,0,1-4.615.063L348.357,295.5A2.245,2.245,0,0,1,348.343,291.618Z" transform="translate(-292.599 -254.604)"/><path class="av" d="M373.3,305.216l10.8-6.32a4.514,4.514,0,0,1,4.539-.015l10.543,6.088a2.244,2.244,0,0,1,.052,3.857l-10.484,6.436a4.515,4.515,0,0,1-4.616.065L373.319,309.1A2.245,2.245,0,0,1,373.3,305.216Z" transform="translate(-292.599 -254.604)"/><path class="av" d="M397.354,319.571l10.794-6.321a4.518,4.518,0,0,1,4.54-.014l54.879,31.7a2.245,2.245,0,0,1,.052,3.858l-10.485,6.436a4.516,4.516,0,0,1-4.615.064l-55.151-31.838A2.245,2.245,0,0,1,397.354,319.571Z" transform="translate(-292.599 -254.604)"/><path class="av" d="M464.885,358.307l10.795-6.321a4.515,4.515,0,0,1,4.538-.014l10.543,6.087a2.246,2.246,0,0,1,.053,3.858l-10.485,6.436a4.516,4.516,0,0,1-4.615.064L464.9,362.19A2.245,2.245,0,0,1,464.885,358.307Z" transform="translate(-292.599 -254.604)"/><path class="av" d="M487.86,372.4l10.794-6.321a4.518,4.518,0,0,1,4.54-.013l10.542,6.086a2.246,2.246,0,0,1,.052,3.859L503.3,382.443a4.513,4.513,0,0,1-4.616.064l-10.814-6.228A2.245,2.245,0,0,1,487.86,372.4Z" transform="translate(-292.599 -254.604)"/><path class="av" d="M512.891,387.138l10.794-6.32a4.514,4.514,0,0,1,4.539-.013l10.543,6.086a2.246,2.246,0,0,1,.052,3.859l-10.484,6.435a4.514,4.514,0,0,1-4.615.065L512.9,391.022A2.246,2.246,0,0,1,512.891,387.138Z" transform="translate(-292.599 -254.604)"/><path class="av" d="M535.525,399.418l10.794-6.32a4.518,4.518,0,0,1,4.54-.015l10.543,6.088a2.245,2.245,0,0,1,.052,3.857l-10.485,6.437a4.513,4.513,0,0,1-4.616.064L535.54,403.3A2.245,2.245,0,0,1,535.525,399.418Z" transform="translate(-292.599 -254.604)"/></g></g></g><g transform="translate(82.775 316.376)"><path class="aq" d="M186.109,556.376l6.173-3.616,6.412-3.7,14.49-8.4a4.928,4.928,0,0,0-.785-8.894h0a10.9,10.9,0,0,0-8.49.44l-11.149,5.423-13.536,4.975a2.739,2.739,0,0,0-1.791,2.729l.2,3.607a7.878,7.878,0,0,0,7.865,7.432Z" transform="translate(-160.596 -268.038)"/><path class="aw" d="M183.924,539.8l8.836-2.167,6.586-3.2a4.9,4.9,0,0,1,.1,8.524l-9.79,5.587-.482.278a6.942,6.942,0,0,1-8.346-1.053c-1.661-1.64-3.064-3.324-2.522-4.021l3.826-1.216A2.744,2.744,0,0,1,183.924,539.8Z" transform="translate(-160.596 -268.038)"/><g transform="translate(13.455 126.055)"><path class="aw" d="M185.768,549.768c4.215,0,6.106-3.416,6.106-7.632L197.4,407.272c0-4.216-8.945-13.179-13.16-13.179s-10.191,48.77-10.191,52.986l2.637,28.481,1.447,66.576A7.631,7.631,0,0,0,185.768,549.768Z" transform="translate(-174.051 -394.093)"/></g><g transform="translate(0 58.598)"><path class="aw" d="M188.664,413.378a6.107,6.107,0,0,0,5.354-9.031l-20.079-36.795a9.03,9.03,0,0,1,2.838-11.821l26.26-17.948a6.107,6.107,0,1,0-6.893-10.082l-26.257,17.947a21.2,21.2,0,0,0-6.669,27.753L183.3,410.2A6.112,6.112,0,0,0,188.664,413.378Z" transform="translate(-160.596 -326.635)"/></g><path class="aq" d="M213.411,572.052l6.172-3.617,6.412-3.7,14.49-8.4a4.927,4.927,0,0,0-.785-8.893h0a10.893,10.893,0,0,0-8.49.44l-11.149,5.423-13.535,4.974a2.741,2.741,0,0,0-1.792,2.729l.2,3.608a7.879,7.879,0,0,0,7.866,7.432Z" transform="translate(-160.596 -268.038)"/><path class="aw" d="M211.226,555.476l8.835-2.167,6.587-3.2a4.9,4.9,0,0,1,.1,8.523l-9.79,5.588-.481.278a6.945,6.945,0,0,1-8.347-1.053c-1.661-1.64-3.063-3.324-2.522-4.021l3.828-1.216A2.738,2.738,0,0,1,211.226,555.476Z" transform="translate(-160.596 -268.038)"/><g transform="translate(30.669 141.73)"><path class="aw" d="M213.069,565.444c4.215,0,6.106-3.416,6.106-7.632V417.4a7.631,7.631,0,0,0-7.632-7.632c-4.215,0-20.278,6.025-20.278,10.241l10.619,71.84,3.553,65.963A7.631,7.631,0,0,0,213.069,565.444Z" transform="translate(-191.265 -409.768)"/></g><path class="ax" d="M174.035,315.508a11.671,11.671,0,0,1,17.221-10.268l.135.073a10.926,10.926,0,0,1,3.471,3.356c11.518,18.921,26.257,23.265,26.257,42.631L216.6,386.114l5.351,33.969,1.829,59.177c-3.488,2.317-7.935,3.211-12.75,3.014-.45-.019-5.65-.32-6.788-.518-13.049-2.261-25.268-3.121-30.208-12.9L172.113,444.1A146.7,146.7,0,0,1,177.7,393.9h0Z" transform="translate(-160.596 -268.038)"/><g transform="translate(28.124 27.45)"><path class="aw" d="M193.591,348.183a6.208,6.208,0,0,0,1.013.122l6.248.229a81.63,81.63,0,0,0,68.981-33.448l7.229-9.888a6.107,6.107,0,0,0-9.86-7.207l-7.228,9.888a69.426,69.426,0,0,1-58.674,28.45l-6.25-.228a6.106,6.106,0,0,0-1.459,12.082Z" transform="translate(-188.72 -295.488)"/></g><path class="aw" d="M192.855,317.453h0a4.514,4.514,0,0,0,4.514-4.515V292.06H188.34v20.878A4.514,4.514,0,0,0,192.855,317.453Z" transform="translate(-160.596 -268.038)"/><path class="aw" d="M183.672,306.228l9.06,1.2c6.672.883,12.826-4.576,12.069-11.263a10.955,10.955,0,0,0-.18-1.09l-4.636-21.338-22.32,4.85Z" transform="translate(-160.596 -268.038)"/><path class="ay" d="M197.4,407.272a73.088,73.088,0,0,1-22.211-3.371c.728-3.356,1.542-6.7,2.506-10l-.1-2.082c12.124,4.258,27.87,4.225,39.884-.106l1.93,12.251A72.939,72.939,0,0,1,197.4,407.272Z" transform="translate(-160.596 -268.038)"/><path class="aw" d="M266.456,303.848l.057.039a1.617,1.617,0,0,0,2.244-.44l8.153-12.137a1.622,1.622,0,0,0-.439-2.248l-.057-.039a1.614,1.614,0,0,0-2.243.439l-8.155,12.14A1.619,1.619,0,0,0,266.456,303.848Z" transform="translate(-160.596 -268.038)"/><path class="aw" d="M266.235,304.022h0a1.8,1.8,0,0,0,1.848-1.744l.152-5.1a1.794,1.794,0,0,0-1.739-1.847h0a1.792,1.792,0,0,0-1.845,1.738l-.153,5.109A1.789,1.789,0,0,0,266.235,304.022Z" transform="translate(-160.596 -268.038)"/><g transform="translate(26.597 66.111)"><path class="az" d="M193.281,349.677a7.862,7.862,0,0,0,1.269.155l6.247.227a83.41,83.41,0,0,0,14.358-.716,7.631,7.631,0,0,0-2.073-15.121,68.171,68.171,0,0,1-11.728.581l-6.25-.228a7.632,7.632,0,0,0-1.823,15.1Z" transform="translate(-187.193 -334.148)"/></g><path class="ba" d="M165.813,330.439a13.154,13.154,0,0,0,1.909-4.792c.352-3.605-2.6-6.677-3.321-10.227-1.063-5.258,2.587-10.073,2.371-15.3-.24-5.793-1.784-10.616-.053-16.477a25.4,25.4,0,0,1,.915-2.579c3.122-7.481,10.42-11.253,18.109-12.509a34.034,34.034,0,0,1,9.948-.275,15.618,15.618,0,0,1,5.656,1.486,4.972,4.972,0,0,1,1.947,1.612,6.472,6.472,0,0,1,.889,3.722c-.3,2.934-4.02,3.949-4.347,6.722-.164,1.393.764,2.954.885,4.363a10.879,10.879,0,0,1-.9,5.407c-1.446,3.18-4.481,5.885-4.325,9.374.068,1.553.79,3,1.013,4.543.8,5.464-4.945,9.629-3.44,15.154.969,3.553,5,6.148,4.629,9.812-.151,1.48-1.036,2.793-1.286,4.26-.512,3.008,1.686,6.261.358,9.009-4.563,9.446-20.383,7.81-27.7,3.712a12.123,12.123,0,0,1-4.676-4.1C162.059,339.465,163.655,334.435,165.813,330.439Z" transform="translate(-160.596 -268.038)"/></g><g transform="translate(-7 193.618)"><path class="bb" d="M115.152,144.723c26.388,15.237,47.98,52.633,47.98,83.1,0,9.533-2.114,17.3-5.827,23.013l1.785,11.894a2.625,2.625,0,0,1-3.672,2.784L144.7,260.7c-8.163,2.7-18.415,1.257-29.545-5.169-26.39-15.235-47.98-52.632-47.98-83.1S88.762,129.489,115.152,144.723Z" transform="translate(-67.172 -138.221)"/><path class="bc" d="M150.581,255.883c3.712-5.711,5.826-13.48,5.826-23.012,0-30.473-21.59-67.869-47.98-83.1-12.607-7.278-24.084-8.172-32.669-3.863,8.685-9.406,23.116-10.577,39.394-1.18,26.388,15.237,47.98,52.633,47.98,83.1,0,9.533-2.114,17.3-5.827,23.013l1.785,11.894a2.625,2.625,0,0,1-3.672,2.784l-3.636-1.635Z" transform="translate(-67.172 -138.221)"/><g transform="translate(33.062 36.154)"><path class="au" d="M114.691,214.3l-6.031-3.43-.051-4.528a11.56,11.56,0,0,1,.459-4.129,7.505,7.505,0,0,1,2.169-2.561l3.834-3.2q1.2-1.157,1.171-3.909a11.813,11.813,0,0,0-1.331-5.3,8.576,8.576,0,0,0-3.325-3.7q-2.028-1.15-3.364-.181-1.353.965-1.532,3.744l-6.456-3.672q.459-6.311,3.6-8.25t7.873.756a20.816,20.816,0,0,1,7.786,8.006,23.927,23.927,0,0,1,3.1,11.763q.046,4.452-1.681,6.419a13.239,13.239,0,0,1-1.515,1.641c-.357.294-.819.658-1.4,1.093s-1.069.818-1.468,1.155a11.23,11.23,0,0,0-.971.886c-.632.728-.929,2.076-.906,4.057Zm-2.722,14.834a7.992,7.992,0,0,1-2.926-3.256,9.7,9.7,0,0,1-1.269-4.558,3.814,3.814,0,0,1,1.156-3.212,2.372,2.372,0,0,1,2.863,0,7.978,7.978,0,0,1,2.926,3.252,9.747,9.747,0,0,1,1.269,4.555,3.853,3.853,0,0,1-1.151,3.219A2.386,2.386,0,0,1,111.969,229.135Z" transform="translate(-100.234 -174.375)"/></g></g><g transform="translate(96.681 57.436)"><g transform="translate(5.539 36.132)"><path class="bd" d="M267.182,80.415a5.742,5.742,0,0,1-5.311-3.556L251.414,51.474a30.81,30.81,0,0,1,5.516-32.126l9.209-10.271a5.741,5.741,0,0,1,8.549,7.665l-9.207,10.271a19.265,19.265,0,0,0-3.45,20.087l10.457,25.386a5.744,5.744,0,0,1-5.306,7.929Z" transform="translate(-249.128 -7.168)"/></g><path class="aq" d="M266.585,178.582l-5.237,3.828-15.469,6.236a3.1,3.1,0,0,0-1.94,2.872l-.334,3.565a3.649,3.649,0,0,0,4.169,3.95l22.639-3.366,2.233-1.774,1.914-.319,1.914,2.093h2.143a3.6,3.6,0,0,0,3.6-3.6v-4.945l-3.508-8.542Z" transform="translate(-243.589 28.964)"/><g transform="translate(19.896 89.09)"><path class="be" d="M272.646,189.3c-4.933,0-7.018-4-7.018-8.931l-1.913-44.989-.212-65.01c-.335-4.921,4.091-9.9,9.012-10.235,4.941-.322,11.852,4.72,12.185,9.641l-3.122,65.3L280.3,180.374C280.3,185.307,277.578,189.3,272.646,189.3Z" transform="translate(-263.485 -60.125)"/></g><path class="aw" d="M346.007,36.822l-.08.005a1.661,1.661,0,0,1-1.768-1.547l-.719-10.772a1.66,1.66,0,0,1,1.547-1.767l.079-.006a1.663,1.663,0,0,1,1.769,1.547l.718,10.772A1.66,1.66,0,0,1,346.007,36.822Z" transform="translate(-243.589 28.964)"/><g transform="translate(54.276 46.588)"><path class="aw" d="M331.921,49.476A24.556,24.556,0,0,1,314.2,42L299.4,26.831a5.423,5.423,0,0,1,7.766-7.571l14.79,15.171a13.8,13.8,0,0,0,9.962,4.2h.026a13.8,13.8,0,0,0,9.97-4.236l6.222-6.258a5.422,5.422,0,0,1,7.69,7.645l-6.169,6.206a24.507,24.507,0,0,1-17.692,7.488Z" transform="translate(-297.864 -17.623)"/></g><path class="aw" d="M347.161,32.665l-.2-.119a1.579,1.579,0,0,1-.523-2.176l5.735-9.332a1.587,1.587,0,0,1,2.182-.521l.2.121a1.585,1.585,0,0,1,.521,2.181l-5.729,9.32A1.592,1.592,0,0,1,347.161,32.665Z" transform="translate(-243.589 28.964)"/><path class="aw" d="M350.976,31.639h0a1.7,1.7,0,0,1-.319-2.381l6.515-8.514a1.7,1.7,0,0,1,2.384-.316h0a1.7,1.7,0,0,1,.317,2.385l-6.509,8.505A1.706,1.706,0,0,1,350.976,31.639Z" transform="translate(-243.589 28.964)"/><path class="aw" d="M352.177,33.645h0a1.7,1.7,0,0,1,.118-2.4l7.939-7.2a1.7,1.7,0,0,1,2.4.119h0a1.7,1.7,0,0,1-.119,2.4l-7.938,7.2A1.7,1.7,0,0,1,352.177,33.645Z" transform="translate(-243.589 28.964)"/><path class="aw" d="M351.259,36.683l-.039-.071a1.66,1.66,0,0,1,.644-2.259L361.3,29.1a1.661,1.661,0,0,1,2.259.643l.039.07a1.66,1.66,0,0,1-.643,2.259l-9.431,5.253A1.662,1.662,0,0,1,351.259,36.683Z" transform="translate(-243.589 28.964)"/><path class="aq" d="M297.387,207.376l-6.475,21.243h0a5.686,5.686,0,0,0,4.321,5.121l1.651.4a5.687,5.687,0,0,0,4.524-.807h0a16.815,16.815,0,0,0,7.3-11.907l1.771-14.472-2.506-5.127Z" transform="translate(-243.589 28.964)"/><path class="bf" d="M303.576,211.314c-4.553,0-7.166-3.463-7.6-8.086l-6.715-57.287L277.965,90.578,264.977,68.22c-.36-4.92,22.193-5.479,27.111-5.839S306.172,75.5,306.532,80.415l.532,64.125,4.138,57c.465,4.91-1.861,9.27-6.771,9.735C304.144,211.3,303.858,211.314,303.576,211.314Z" transform="translate(-243.589 28.964)"/><path class="bg" d="M349.808,34.039a5.74,5.74,0,0,0-8.119.134,13.481,13.481,0,0,1-9.741,4.14h-.026a13.49,13.49,0,0,1-9.734-4.1l-12.9-13.237a19.958,19.958,0,0,0-7.126-8.345q-.542-.357-1.109-.685l-17.1-9.568A13.633,13.633,0,0,0,263.5,14.179l.007,58.507c6.465,9.381,21.19,16.287,43.446,11.7l1.435-22.033,1.69-24.117,3.886,3.985A24.873,24.873,0,0,0,331.921,49.8h.048a24.872,24.872,0,0,0,17.973-7.638A5.744,5.744,0,0,0,349.808,34.039Z" transform="translate(-243.589 28.964)"/><path class="au" d="M284.069,15.755l-8,5.9-.061-4.556a15.4,15.4,0,0,1,1.227-6.228l2.983-7.009,2.239.318Z" transform="translate(-243.589 28.964)"/><path class="bh" d="M284.137,15.82l4.591,6.22-4,6.222-4.357-1.543-1.735-6.957Z" transform="translate(-243.589 28.964)"/><path class="aw" d="M286.942,16.731h0A4.727,4.727,0,0,1,282.215,12V-4.347h9.454V12A4.727,4.727,0,0,1,286.942,16.731Z" transform="translate(-243.589 28.964)"/><path class="aw" d="M288.992,7.469h-4.128c-10.686,0-15.222-8.664-15.222-19.352V-16.2a5.968,5.968,0,0,1,5.968-5.967h10.113a7.656,7.656,0,0,1,7.656,7.656l4.486,16.464C297.865,4.373,291.415,7.469,288.992,7.469Z" transform="translate(-243.589 28.964)"/><path class="aq" d="M304.213-12.29a19.239,19.239,0,0,0-10.623-14,28.71,28.71,0,0,0-8.2-2.262c-4.5-.652-9.253-.713-13.4,1.15-4.772,2.147-7.017,6.351-1.862,9.851a14.1,14.1,0,0,0,7.236,2.062c2.809.148,5.978.015,7.992,1.979,2.678,2.612,1.609,7.2,3.261,10.558q.616-.009,1.234-.015c.479-.924.181-2.042.278-3.077s1.085-2.193,2.006-1.709a1.917,1.917,0,0,1,.778,1.519,16.4,16.4,0,0,1-.346,6.371c-.486,1.9-1.123,4.366.5,5.46,2.8,1.884,7.42-3.353,8.657-5.382A18.55,18.55,0,0,0,304.213-12.29Z" transform="translate(-243.589 28.964)"/><path class="au" d="M284.069,15.755,290.53,24.7l.583-5.446a18.849,18.849,0,0,1,3.7-9.349h0A1.4,1.4,0,0,0,294.3,7.8l-2.032-.974Z" transform="translate(-243.589 28.964)"/><path class="aq" d="M306.956,79.923C284.7,84.507,269.975,77.6,263.51,68.22v4.466c6.465,9.381,21.19,16.287,43.446,11.7Z" transform="translate(-243.589 28.964)"/><path class="bi" d="M284.865,28.231l-1.268,48.1-4.538,3.758-2.523-4.974,3.973-48.425Z" transform="translate(-243.589 28.964)"/></g><g transform="translate(304.531 581.541)"><g class="bj" transform="translate(0 5.974)"><path class="b" d="M524.156,519.221l-74.283,42.887a7.278,7.278,0,0,0,.068,12.644L524.3,616.615a15.255,15.255,0,0,0,14.971,0l74.359-41.863a7.278,7.278,0,0,0,.068-12.644l-74.283-42.887A15.258,15.258,0,0,0,524.156,519.221Z" transform="translate(-446.234 -517.177)"/><path class="bk" d="M524.193,519.456,450.27,562.135a7.243,7.243,0,0,0,.068,12.583l74,41.661a15.184,15.184,0,0,0,14.9,0l74-41.66a7.243,7.243,0,0,0,.069-12.584l-73.924-42.679A15.186,15.186,0,0,0,524.193,519.456Z" transform="translate(-446.234 -517.177)"/><path class="bl" d="M524.23,519.692l-73.563,42.472a7.207,7.207,0,0,0,.068,12.521l73.637,41.458a15.111,15.111,0,0,0,14.826,0l73.637-41.458a7.206,7.206,0,0,0,.068-12.521L539.34,519.692A15.111,15.111,0,0,0,524.23,519.692Z" transform="translate(-446.234 -517.177)"/><path class="bm" d="M524.267,519.928l-73.2,42.264a7.172,7.172,0,0,0,.068,12.46l73.277,41.255a15.038,15.038,0,0,0,14.753,0l73.277-41.255a7.171,7.171,0,0,0,.067-12.46l-73.2-42.264A15.038,15.038,0,0,0,524.267,519.928Z" transform="translate(-446.234 -517.177)"/><path class="bn" d="M524.3,520.164l-72.842,42.055a7.137,7.137,0,0,0,.067,12.4l72.916,41.051a14.959,14.959,0,0,0,14.68,0l72.917-41.051a7.137,7.137,0,0,0,.068-12.4l-72.843-42.056A14.967,14.967,0,0,0,524.3,520.164Z" transform="translate(-446.234 -517.177)"/><path class="bo" d="M524.341,520.4l-72.482,41.847a7.1,7.1,0,0,0,.067,12.338l72.555,40.848a14.885,14.885,0,0,0,14.609,0l72.555-40.847a7.1,7.1,0,0,0,.067-12.339L539.23,520.4A14.892,14.892,0,0,0,524.341,520.4Z" transform="translate(-446.234 -517.177)"/><path class="bp" d="M524.378,520.636l-72.122,41.64a7.066,7.066,0,0,0,.067,12.276l72.2,40.646a14.815,14.815,0,0,0,14.535,0l72.2-40.646a7.066,7.066,0,0,0,.066-12.276l-72.122-41.64A14.817,14.817,0,0,0,524.378,520.636Z" transform="translate(-446.234 -517.177)"/><path class="bq" d="M524.415,520.872,452.653,562.3a7.03,7.03,0,0,0,.067,12.215l71.834,40.443a14.739,14.739,0,0,0,14.463,0l71.835-40.443a7.031,7.031,0,0,0,.065-12.215l-71.761-41.431A14.737,14.737,0,0,0,524.415,520.872Z" transform="translate(-446.234 -517.177)"/><path class="br" d="M524.452,521.108l-71.4,41.223a7,7,0,0,0,.066,12.154l71.474,40.24a14.667,14.667,0,0,0,14.391,0l71.474-40.239a7,7,0,0,0,.066-12.155l-71.4-41.223A14.665,14.665,0,0,0,524.452,521.108Z" transform="translate(-446.234 -517.177)"/><path class="bs" d="M524.489,521.344l-71.041,41.015a6.961,6.961,0,0,0,.065,12.093l71.113,40.036a14.589,14.589,0,0,0,14.318,0l71.114-40.036a6.96,6.96,0,0,0,.066-12.092l-71.042-41.016A14.592,14.592,0,0,0,524.489,521.344Z" transform="translate(-446.234 -517.177)"/><path class="bt" d="M524.526,521.58l-70.682,40.807a6.925,6.925,0,0,0,.066,12.031l70.753,39.834a14.516,14.516,0,0,0,14.245,0l70.753-39.833a6.926,6.926,0,0,0,.066-12.032L539.045,521.58A14.517,14.517,0,0,0,524.526,521.58Z" transform="translate(-446.234 -517.177)"/><path class="bu" d="M524.563,521.816l-70.321,40.6a6.889,6.889,0,0,0,.065,11.97L524.7,614.016a14.445,14.445,0,0,0,14.173,0l70.393-39.631a6.89,6.89,0,0,0,.064-11.97l-70.321-40.6A14.442,14.442,0,0,0,524.563,521.816Z" transform="translate(-446.234 -517.177)"/><path class="bv" d="M524.6,522.051l-69.961,40.392a6.855,6.855,0,0,0,.064,11.909l70.032,39.427a14.368,14.368,0,0,0,14.1,0l70.031-39.427a6.854,6.854,0,0,0,.065-11.909l-69.961-40.392A14.372,14.372,0,0,0,524.6,522.051Z" transform="translate(-446.234 -517.177)"/><path class="bw" d="M524.637,522.287l-69.6,40.184a6.819,6.819,0,0,0,.063,11.847l69.671,39.225a14.3,14.3,0,0,0,14.028,0l69.671-39.225a6.819,6.819,0,0,0,.065-11.847l-69.6-40.184A14.3,14.3,0,0,0,524.637,522.287Z" transform="translate(-446.234 -517.177)"/><path class="bx" d="M524.674,522.524,455.433,562.5a6.784,6.784,0,0,0,.064,11.786l69.311,39.022a14.222,14.222,0,0,0,13.955,0l69.311-39.022a6.784,6.784,0,0,0,.064-11.786L538.9,522.524A14.221,14.221,0,0,0,524.674,522.524Z" transform="translate(-446.234 -517.177)"/><path class="by" d="M524.711,522.759,455.83,562.527a6.748,6.748,0,0,0,.064,11.725l68.95,38.818a14.149,14.149,0,0,0,13.882,0l68.951-38.818a6.749,6.749,0,0,0,.064-11.725L538.86,522.759A14.151,14.151,0,0,0,524.711,522.759Z" transform="translate(-446.234 -517.177)"/><path class="bz" d="M524.748,522.995l-68.521,39.56a6.714,6.714,0,0,0,.064,11.664l68.589,38.615a14.074,14.074,0,0,0,13.811,0l68.589-38.615a6.714,6.714,0,0,0,.063-11.664l-68.521-39.56A14.075,14.075,0,0,0,524.748,522.995Z" transform="translate(-446.234 -517.177)"/><path class="ca" d="M524.785,523.232l-68.16,39.351a6.679,6.679,0,0,0,.062,11.6l68.23,38.413a14,14,0,0,0,13.737,0l68.229-38.413a6.677,6.677,0,0,0,.063-11.6l-68.16-39.351A14,14,0,0,0,524.785,523.232Z" transform="translate(-446.234 -517.177)"/><path class="cb" d="M524.822,523.467l-67.8,39.144a6.643,6.643,0,0,0,.062,11.541l67.869,38.21a13.928,13.928,0,0,0,13.665,0l67.868-38.21a6.643,6.643,0,0,0,.063-11.541l-67.8-39.144A13.931,13.931,0,0,0,524.822,523.467Z" transform="translate(-446.234 -517.177)"/><path class="cc" d="M524.859,523.7l-67.44,38.936a6.608,6.608,0,0,0,.062,11.48l67.508,38.006a13.857,13.857,0,0,0,13.593,0l67.508-38.006a6.608,6.608,0,0,0,.062-11.48L538.712,523.7A13.851,13.851,0,0,0,524.859,523.7Z" transform="translate(-446.234 -517.177)"/><path class="cd" d="M524.9,523.939l-67.08,38.728a6.572,6.572,0,0,0,.063,11.418l67.146,37.8a13.778,13.778,0,0,0,13.52,0l67.148-37.8a6.572,6.572,0,0,0,.062-11.418l-67.08-38.728A13.776,13.776,0,0,0,524.9,523.939Z" transform="translate(-446.234 -517.177)"/><path class="ce" d="M524.933,524.175,458.214,562.7a6.536,6.536,0,0,0,.061,11.357l66.787,37.6a13.706,13.706,0,0,0,13.447,0l66.787-37.6a6.536,6.536,0,0,0,.061-11.357l-66.719-38.52A13.706,13.706,0,0,0,524.933,524.175Z" transform="translate(-446.234 -517.177)"/><path class="cf" d="M524.97,524.41l-66.359,38.313a6.5,6.5,0,0,0,.061,11.3l66.426,37.4a13.634,13.634,0,0,0,13.375,0l66.426-37.4a6.5,6.5,0,0,0,.061-11.3L538.6,524.41A13.636,13.636,0,0,0,524.97,524.41Z" transform="translate(-446.234 -517.177)"/><path class="cg" d="M525.007,524.646l-66,38.1a6.466,6.466,0,0,0,.061,11.234l66.066,37.2a13.561,13.561,0,0,0,13.3,0l66.065-37.2a6.466,6.466,0,0,0,.061-11.234l-66-38.1A13.56,13.56,0,0,0,525.007,524.646Z" transform="translate(-446.234 -517.177)"/><path class="ch" d="M525.044,524.883l-65.639,37.9a6.431,6.431,0,0,0,.06,11.173l65.706,36.992a13.483,13.483,0,0,0,13.229,0l65.706-36.992a6.431,6.431,0,0,0,.06-11.173l-65.639-37.9A13.476,13.476,0,0,0,525.044,524.883Z" transform="translate(-446.234 -517.177)"/><path class="ci" d="M525.081,525.118,459.8,562.807a6.4,6.4,0,0,0,.06,11.112l65.345,36.788a13.4,13.4,0,0,0,13.156,0l65.346-36.788a6.4,6.4,0,0,0,.059-11.112L538.49,525.118A13.411,13.411,0,0,0,525.081,525.118Z" transform="translate(-446.234 -517.177)"/><path class="cj" d="M525.118,525.355,460.2,562.835a6.36,6.36,0,0,0,.06,11.05l64.985,36.586a13.336,13.336,0,0,0,13.083,0l64.985-36.586a6.361,6.361,0,0,0,.06-11.05l-64.919-37.48A13.336,13.336,0,0,0,525.118,525.355Z" transform="translate(-446.234 -517.177)"/><path class="ck" d="M525.155,525.591,460.6,562.863a6.325,6.325,0,0,0,.059,10.989l64.624,36.383a13.26,13.26,0,0,0,13.011,0l64.624-36.383a6.325,6.325,0,0,0,.06-10.989l-64.559-37.272A13.255,13.255,0,0,0,525.155,525.591Z" transform="translate(-446.234 -517.177)"/><path class="cl" d="M525.192,525.826l-64.2,37.065a6.289,6.289,0,0,0,.058,10.927L525.316,610a13.189,13.189,0,0,0,12.939,0l64.263-36.181a6.289,6.289,0,0,0,.06-10.927l-64.2-37.065A13.185,13.185,0,0,0,525.192,525.826Z" transform="translate(-446.234 -517.177)"/><path class="cm" d="M525.229,526.062,461.39,562.919a6.255,6.255,0,0,0,.06,10.867l63.9,35.976a13.118,13.118,0,0,0,12.867,0l63.9-35.976a6.255,6.255,0,0,0,.059-10.867l-63.838-36.857A13.11,13.11,0,0,0,525.229,526.062Z" transform="translate(-446.234 -517.177)"/><path class="cn" d="M525.266,526.3l-63.478,36.649a6.219,6.219,0,0,0,.059,10.8l63.542,35.773a13.038,13.038,0,0,0,12.793,0l63.543-35.773a6.22,6.22,0,0,0,.058-10.8L538.3,526.3A13.04,13.04,0,0,0,525.266,526.3Z" transform="translate(-446.234 -517.177)"/><path class="co" d="M525.3,526.534l-63.118,36.441a6.184,6.184,0,0,0,.058,10.743l63.182,35.572a12.966,12.966,0,0,0,12.721,0l63.181-35.572a6.183,6.183,0,0,0,.059-10.743l-63.118-36.441A12.965,12.965,0,0,0,525.3,526.534Z" transform="translate(-446.234 -517.177)"/><path class="cp" d="M525.34,526.77,462.582,563a6.148,6.148,0,0,0,.058,10.682l62.821,35.368a12.89,12.89,0,0,0,12.649,0l62.821-35.368A6.148,6.148,0,0,0,600.989,563L538.231,526.77A12.89,12.89,0,0,0,525.34,526.77Z" transform="translate(-446.234 -517.177)"/><path class="cq" d="M525.377,527.006l-62.4,36.025a6.113,6.113,0,0,0,.058,10.621L525.5,608.817a12.82,12.82,0,0,0,12.575,0l62.461-35.165a6.114,6.114,0,0,0,.058-10.621l-62.4-36.025A12.815,12.815,0,0,0,525.377,527.006Z" transform="translate(-446.234 -517.177)"/><path class="cr" d="M525.414,527.242l-62.038,35.817a6.077,6.077,0,0,0,.058,10.559l62.1,34.962a12.739,12.739,0,0,0,12.5,0l62.1-34.962a6.077,6.077,0,0,0,.057-10.559l-62.037-35.817A12.74,12.74,0,0,0,525.414,527.242Z" transform="translate(-446.234 -517.177)"/><path class="cs" d="M525.451,527.478l-61.677,35.609a6.042,6.042,0,0,0,.057,10.5l61.739,34.759a12.667,12.667,0,0,0,12.431,0l61.74-34.759a6.042,6.042,0,0,0,.056-10.5L538.12,527.478A12.664,12.664,0,0,0,525.451,527.478Z" transform="translate(-446.234 -517.177)"/><path class="ct" d="M525.488,527.714l-61.317,35.4a6.007,6.007,0,0,0,.057,10.437l61.378,34.556a12.6,12.6,0,0,0,12.358,0l61.38-34.556a6.007,6.007,0,0,0,.056-10.437l-61.317-35.4A12.59,12.59,0,0,0,525.488,527.714Z" transform="translate(-446.234 -517.177)"/><path class="cu" d="M525.525,527.95l-60.957,35.193a5.972,5.972,0,0,0,.056,10.376l61.019,34.352a12.521,12.521,0,0,0,12.285,0l61.019-34.352A5.972,5.972,0,0,0,599,563.143L538.046,527.95A12.514,12.514,0,0,0,525.525,527.95Z" transform="translate(-446.234 -517.177)"/><path class="cv" d="M525.562,528.185l-60.6,34.986a5.937,5.937,0,0,0,.056,10.314l60.658,34.15a12.444,12.444,0,0,0,12.213,0l60.658-34.15a5.936,5.936,0,0,0,.056-10.314l-60.6-34.986A12.449,12.449,0,0,0,525.562,528.185Z" transform="translate(-446.234 -517.177)"/><path class="cw" d="M525.6,528.421,465.362,563.2a5.9,5.9,0,0,0,.056,10.253l60.3,33.947a12.371,12.371,0,0,0,12.14,0l60.3-33.947a5.9,5.9,0,0,0,.056-10.253l-60.236-34.778A12.376,12.376,0,0,0,525.6,528.421Z" transform="translate(-446.234 -517.177)"/><path class="cx" d="M525.636,528.657l-59.877,34.57a5.866,5.866,0,0,0,.056,10.192l59.936,33.743a12.3,12.3,0,0,0,12.068,0l59.937-33.743a5.866,5.866,0,0,0,.055-10.192l-59.876-34.57A12.3,12.3,0,0,0,525.636,528.657Z" transform="translate(-446.234 -517.177)"/><path class="cy" d="M525.673,528.893l-59.516,34.362a5.83,5.83,0,0,0,.054,10.13l59.577,33.541a12.222,12.222,0,0,0,11.995,0l59.576-33.541a5.83,5.83,0,0,0,.055-10.13L537.9,528.893A12.224,12.224,0,0,0,525.673,528.893Z" transform="translate(-446.234 -517.177)"/><path class="cz" d="M525.71,529.129l-59.156,34.154a5.8,5.8,0,0,0,.054,10.069l59.216,33.338a12.149,12.149,0,0,0,11.922,0l59.216-33.338a5.8,5.8,0,0,0,.055-10.069l-59.156-34.154A12.154,12.154,0,0,0,525.71,529.129Z" transform="translate(-446.234 -517.177)"/><path class="da" d="M525.747,529.365l-58.8,33.946a5.76,5.76,0,0,0,.054,10.008l58.855,33.135a12.077,12.077,0,0,0,11.85,0l58.856-33.135a5.76,5.76,0,0,0,.054-10.008l-58.8-33.946A12.079,12.079,0,0,0,525.747,529.365Z" transform="translate(-446.234 -517.177)"/><path class="db" d="M525.783,529.6l-58.435,33.738a5.724,5.724,0,0,0,.054,9.946L525.9,606.217a12,12,0,0,0,11.777,0l58.495-32.932a5.725,5.725,0,0,0,.054-9.946L537.787,529.6A12.005,12.005,0,0,0,525.783,529.6Z" transform="translate(-446.234 -517.177)"/><path class="dc" d="M525.821,529.837l-58.076,33.53a5.688,5.688,0,0,0,.054,9.884l58.134,32.73a11.928,11.928,0,0,0,11.705,0l58.134-32.729a5.69,5.69,0,0,0,.053-9.885l-58.075-33.53A11.929,11.929,0,0,0,525.821,529.837Z" transform="translate(-446.234 -517.177)"/><path class="dd" d="M525.858,530.073,468.143,563.4a5.654,5.654,0,0,0,.053,9.824l57.773,32.526a11.856,11.856,0,0,0,11.633,0l57.773-32.526a5.654,5.654,0,0,0,.054-9.824l-57.716-33.322A11.854,11.854,0,0,0,525.858,530.073Z" transform="translate(-446.234 -517.177)"/><path class="de" d="M525.9,530.309,468.54,563.423a5.618,5.618,0,0,0,.053,9.762l57.412,32.323a11.778,11.778,0,0,0,11.56,0l57.413-32.323a5.619,5.619,0,0,0,.053-9.762l-57.355-33.114A11.778,11.778,0,0,0,525.9,530.309Z" transform="translate(-446.234 -517.177)"/><path class="df" d="M525.932,530.544l-56.995,32.907a5.583,5.583,0,0,0,.053,9.7l57.052,32.12a11.7,11.7,0,0,0,11.487,0l57.053-32.12a5.584,5.584,0,0,0,.052-9.7l-56.995-32.907A11.708,11.708,0,0,0,525.932,530.544Z" transform="translate(-446.234 -517.177)"/><path class="dg" d="M525.969,530.78l-56.635,32.7a5.548,5.548,0,0,0,.053,9.64l56.691,31.918a11.632,11.632,0,0,0,11.414,0l56.693-31.918a5.549,5.549,0,0,0,.052-9.64L537.6,530.78A11.633,11.633,0,0,0,525.969,530.78Z" transform="translate(-446.234 -517.177)"/><path class="dh" d="M526.005,531.016l-56.273,32.491a5.513,5.513,0,0,0,.051,9.578L526.115,604.8a11.561,11.561,0,0,0,11.342,0l56.331-31.714a5.514,5.514,0,0,0,.052-9.579l-56.275-32.491A11.56,11.56,0,0,0,526.005,531.016Z" transform="translate(-446.234 -517.177)"/><path class="aq" d="M526.043,531.252l-55.914,32.283a5.477,5.477,0,0,0,.051,9.517l55.971,31.511a11.482,11.482,0,0,0,11.269,0l55.971-31.511a5.478,5.478,0,0,0,.052-9.517l-55.915-32.283A11.483,11.483,0,0,0,526.043,531.252Z" transform="translate(-446.234 -517.177)"/></g><path class="di" d="M525.265,525.012l-66.6,30.042v11.04a7.229,7.229,0,0,0,3.655,6.283l63.067,35.878a13.043,13.043,0,0,0,12.8,0l62.884-35.437a7.227,7.227,0,0,0,3.68-6.3V556.353l-66.441-31.341A13.044,13.044,0,0,0,525.265,525.012Z" transform="translate(-446.234 -511.202)"/><path class="au" d="M525.265,512.949,461.775,549.6a6.221,6.221,0,0,0,.059,10.807l63.553,35.781a13.048,13.048,0,0,0,12.8,0l63.554-35.781A6.22,6.22,0,0,0,601.8,549.6l-63.49-36.656A13.044,13.044,0,0,0,525.265,512.949Z" transform="translate(-446.234 -511.202)"/><path class="dj" d="M601.8,549.6l-63.49-36.656a13.044,13.044,0,0,0-13.041,0L511.7,520.618l79.135,45.689,10.9-5.9A6.22,6.22,0,0,0,601.8,549.6Z" transform="translate(-446.234 -511.202)"/><path class="av" d="M510.08,550.021l14.87-8.585-14.87-8.585-14.869,8.585Z" transform="translate(-446.234 -511.202)"/><path class="av" d="M531.785,562.832l14.869-8.585-14.869-8.584-14.869,8.584Z" transform="translate(-446.234 -511.202)"/><path class="av" d="M553.491,575.644l14.869-8.585-14.869-8.585-14.869,8.585Z" transform="translate(-446.234 -511.202)"/><path class="av" d="M490,562.832l14.869-8.585L490,545.663l-14.869,8.584Z" transform="translate(-446.234 -511.202)"/><path class="av" d="M511.7,575.644l14.869-8.585L511.7,558.474l-14.869,8.585Z" transform="translate(-446.234 -511.202)"/><path class="av" d="M533.409,588.456l14.869-8.585-14.869-8.585-14.869,8.585Z" transform="translate(-446.234 -511.202)"/></g><g transform="translate(430.545 535.145)"><path class="dk" d="M701,475.112h-5.1a33.213,33.213,0,0,0-8.194-6.469c-17.719-10.23-46.714-10.23-64.434,0a33.212,33.212,0,0,0-8.194,6.469h-5.1v12.036h0c-.042,6.774,4.384,13.558,13.286,18.7,17.72,10.23,46.715,10.23,64.434,0,8.9-5.139,13.328-11.923,13.286-18.7h0Z" transform="translate(-609.935 -448.807)"/><ellipse class="dl" cx="45.562" cy="26.305" rx="45.562" ry="26.305"/><path class="au" d="M626.6,458.43c15.891-9.174,41.9-9.174,57.786,0s15.892,24.188,0,33.363-41.9,9.175-57.786,0S610.713,467.605,626.6,458.43Z" transform="translate(-609.935 -448.807)"/><g transform="translate(44.314 13.89)"><path class="aq" d="M656.5,477.444a2.244,2.244,0,0,1-1.125-4.188L673.136,463a2.244,2.244,0,0,1,2.243,3.888l-17.763,10.256A2.236,2.236,0,0,1,656.5,477.444Z" transform="translate(-654.249 -462.697)"/></g><g transform="translate(45.621 24.71)"><path class="be" d="M678.491,489.154a1.673,1.673,0,0,1-.839-.225L656.4,476.657a1.683,1.683,0,1,1,1.683-2.915l21.254,12.272a1.683,1.683,0,0,1-.844,3.14Z" transform="translate(-655.557 -473.517)"/></g><path class="aq" d="M651.3,472.2a11.523,11.523,0,0,1,10.387,0c2.855,1.649,2.855,4.347,0,6a11.517,11.517,0,0,1-10.387,0C648.444,476.549,648.444,473.851,651.3,472.2Z" transform="translate(-609.935 -448.807)"/><path class="aq" d="M678.338,459.909a4.082,4.082,0,0,1,3.676,0,1.122,1.122,0,0,1,0,2.123,4.075,4.075,0,0,1-3.676,0A1.122,1.122,0,0,1,678.338,459.909Z" transform="translate(-609.935 -448.807)"/><path class="aq" d="M630.554,459.909a4.082,4.082,0,0,1,3.676,0,1.122,1.122,0,0,1,0,2.123,4.075,4.075,0,0,1-3.676,0A1.122,1.122,0,0,1,630.554,459.909Z" transform="translate(-609.935 -448.807)"/><ellipse class="aq" cx="2.599" cy="1.501" rx="2.599" ry="1.501" transform="translate(17.261 38.847)"/><path class="aq" d="M679.833,489.592a4.084,4.084,0,0,1,3.677,0,1.122,1.122,0,0,1,0,2.123,4.084,4.084,0,0,1-3.677,0A1.122,1.122,0,0,1,679.833,489.592Z" transform="translate(-609.935 -448.807)"/></g></g><g transform="matrix(1, 0.017, -0.017, 1, -147.695, 136.755)"><path class="ar" d="M665.885-24.087a12.092,12.092,0,0,0-5.777-9.508L429.491-160.42a4.706,4.706,0,0,0-4.307-.1l-3.591,1.755,1.638,297.484a12.091,12.091,0,0,0,5.776,9.51l233.3,131.442,3.578,1.969Z" transform="translate(-419.523 160.994)"/><path class="dm" d="M662.068-21.507a12.074,12.074,0,0,0-5.775-9.5l-231-127.02c-3.176-1.747-5.775-.33-5.775,3.147V146.051l242.545,133.37Z" transform="translate(-419.523 160.994)"/><g transform="translate(0 2)"><path class="di" d="M656.115-32.667,425.293-158.034c-3.174-1.724-5.77-.326-5.77,3.106v14.09L661.885-9.2v-14.09A11.9,11.9,0,0,0,656.115-32.667Z" transform="translate(-419.523 158.773)"/><path class="au" d="M432.985-144.441c-.979-.558-1.78-.1-1.78,1.02a3.9,3.9,0,0,0,1.785,3.05c.981.559,1.782.1,1.779-1.02A3.907,3.907,0,0,0,432.985-144.441Z" transform="translate(-420.839 157.018)"/><path class="au" d="M441.745-139.249c-.979-.557-1.779-.1-1.779,1.021a3.9,3.9,0,0,0,1.784,3.05c.981.559,1.783.1,1.779-1.02A3.907,3.907,0,0,0,441.745-139.249Z" transform="translate(-421.826 156.371)"/><path class="au" d="M450.506-134.056c-.98-.558-1.781-.1-1.781,1.02a3.9,3.9,0,0,0,1.785,3.049c.981.559,1.783.1,1.78-1.019A3.909,3.909,0,0,0,450.506-134.056Z" transform="translate(-422.812 155.725)"/><path class="av" d="M489.382-40.153v6.578L645.607,56.56V50.024Z" transform="translate(-414.801 144.003)"/><path class="av" d="M489.382-19.794v6.578L645.607,76.918V70.383Z" transform="translate(-414.801 141.468)"/><path class="av" d="M489.382.565V7.142l93.9,54.488V55.094Z" transform="translate(-421.787 138.933)"/><path class="av" d="M489.382,57.076v6.578l156.225,90.135v-6.536Z" transform="translate(-414.801 131.897)"/><path class="av" d="M489.382,77.434v6.578l156.225,90.135v-6.535Z" transform="translate(-414.801 129.362)"/><path class="av" d="M489.382,97.793v6.578l93.9,54.487v-6.536Z" transform="translate(-421.787 126.827)"/><path class="av" d="M489.382,154.3v6.578l156.225,90.135v-6.536Z" transform="translate(-414.801 119.791)"/><path class="av" d="M489.382,174.663v6.578l156.225,90.135V264.84Z" transform="translate(-414.801 117.256)"/><path class="av" d="M489.382,195.021V201.6l93.9,54.487v-6.536Z" transform="translate(-421.787 114.721)"/><g transform="translate(18.136 89.816)"><path class="aq" d="M457.2-53.878c-9.481-5.4-17.239-.982-17.239,9.819S447.718-20,457.2-14.6s17.239.982,17.239-9.819S466.681-48.477,457.2-53.878Z" transform="translate(-439.961 56.183)"/><g transform="translate(8.019 18.146)"><path class="au" d="M455.688-22.333l-6.141-7.355a2.344,2.344,0,0,1,.324-3.331,2.423,2.423,0,0,1,3.379.321l3.154,3.774,7.739-6.024a2.425,2.425,0,0,1,3.371.393,2.346,2.346,0,0,1-.4,3.325Z" transform="translate(-448.998 35.456)"/></g></g><g transform="translate(18.136 174.938)"><path class="aq" d="M457.2,43.35c-9.481-5.4-17.239-.981-17.239,9.819s7.757,24.058,17.239,29.459,17.239.981,17.239-9.819S466.681,48.751,457.2,43.35Z" transform="translate(-439.961 -41.045)"/><g transform="translate(8.019 18.146)"><path class="au" d="M455.688,74.895l-6.141-7.353a2.346,2.346,0,0,1,.324-3.333,2.423,2.423,0,0,1,3.379.322L456.4,68.3l7.739-6.024a2.425,2.425,0,0,1,3.371.394,2.345,2.345,0,0,1-.4,3.324Z" transform="translate(-448.998 -61.772)"/></g></g><g transform="translate(18.136 260.061)"><path class="aq" d="M457.2,140.578c-9.481-5.4-17.239-.981-17.239,9.82s7.757,24.058,17.239,29.458,17.239.982,17.239-9.819S466.681,145.98,457.2,140.578Z" transform="translate(-439.961 -138.274)"/><g transform="translate(8.019 18.146)"><path class="au" d="M455.688,172.124l-6.141-7.354a2.345,2.345,0,0,1,.324-3.332,2.423,2.423,0,0,1,3.379.321l3.154,3.774,7.739-6.024a2.425,2.425,0,0,1,3.371.393,2.346,2.346,0,0,1-.4,3.325Z" transform="translate(-448.998 -159.001)"/></g></g></g></g><g transform="matrix(1, 0.017, -0.017, 1, -34.144, 235.69)"><path class="dn" d="M552.3-20.237h0a11.826,11.826,0,0,1,13.9-1.507L745.815,81.922a15.5,15.5,0,0,1,6.967,12.1V268.371a9.385,9.385,0,0,1-6.891,9.054h0a6.348,6.348,0,0,1-4.861-.628L557.43,170.821a15.5,15.5,0,0,1-6.969-12.1V-16.056A5.66,5.66,0,0,1,552.3-20.237Z" transform="translate(-550.461 23.335)"/><path class="dm" d="M550.461-15.194c0-4.429,3.125-6.242,6.942-4.027L739.495,86.161a15.491,15.491,0,0,1,6.944,12.082V272.267c0,4.429-3.125,6.242-6.944,4.027L557.4,170.912a15.488,15.488,0,0,1-6.942-12.08Z" transform="translate(-550.461 23.335)"/><g transform="translate(0 3)"><path class="do" d="M739.827,84.023,557.415-19.24c-3.824-2.171-6.954-.394-6.954,3.946V3.657L746.782,114.828V95.862A15.116,15.116,0,0,0,739.827,84.023Z" transform="translate(-550.461 20.166)"/><path class="av" d="M561.578,26.878V66.206l35.277,19.788V46.666Z" transform="translate(-551.729 14.081)"/><path class="av" d="M561.578,86.185v39.328L596.855,145.3V105.972Z" transform="translate(-551.729 6.41)"/><path class="av" d="M561.578,145.493V184.82l35.277,19.788V165.28Z" transform="translate(-551.729 -1.261)"/><g transform="translate(15.554 17.583)"><path class="au" d="M571.362.475c-1.839-1.044-3.345-.191-3.345,1.9a7.269,7.269,0,0,0,3.345,5.691c1.838,1.043,3.343.189,3.343-1.9A7.265,7.265,0,0,0,571.362.475Z" transform="translate(-568.017 -0.029)"/><path class="au" d="M584.275,8.085c-1.839-1.043-3.343-.19-3.343,1.9a7.266,7.266,0,0,0,3.343,5.691c1.839,1.044,3.344.19,3.344-1.9A7.267,7.267,0,0,0,584.275,8.085Z" transform="translate(-569.49 -1.013)"/><path class="au" d="M597.19,15.7c-1.839-1.044-3.343-.19-3.343,1.9a7.265,7.265,0,0,0,3.343,5.691c1.839,1.043,3.345.189,3.345-1.9A7.266,7.266,0,0,0,597.19,15.7Z" transform="translate(-570.962 -1.998)"/></g><g transform="translate(54.04 73.354)"><path class="be" d="M630.629,99.714l-2.355-7.75-9.537-5.043-1.879,5.51-5.4-2.854,8.731-25.492,4.918,2.6,10.928,35.885ZM622.99,74.522l-2.547,7.4,5.7,3.011Z" transform="translate(-611.455 -64.085)"/></g><g transform="translate(56.391 116.308)"><path class="be" d="M625.17,149.376l-9.963-5.269-1.1-30.686,8.855,4.679a17.813,17.813,0,0,1,4.015,2.856,13.037,13.037,0,0,1,2.592,3.352,14.772,14.772,0,0,1,1.724,6.166q.132,3.6-1.531,4.446a3.057,3.057,0,0,1-.787.338c-.15.023-.417.048-.8.074a13.518,13.518,0,0,1,4.888,9.867,6.344,6.344,0,0,1-1.425,4.8Q629.857,151.857,625.17,149.376Zm-5.535-20.845,2.409,1.271a6.653,6.653,0,0,0,3.119,1.046q1-.067.932-2.113a5.123,5.123,0,0,0-1.046-3.2,10.756,10.756,0,0,0-3.213-2.344L619.4,121.9ZM620.08,141l3.484,1.839a6.11,6.11,0,0,0,3.245,1q1.064-.145.99-2.272a5.17,5.17,0,0,0-1.256-3.427,13.94,13.94,0,0,0-3.721-2.632l-2.994-1.579Z" transform="translate(-614.109 -113.421)"/></g><g transform="translate(55.547 173.789)"><path class="be" d="M625.327,206.012q3.741,1.98,5.977-.76l3.415,6.241q-3.661,3.837-8.917,1.056a22.235,22.235,0,0,1-8.821-9.054,28.277,28.277,0,0,1-3.807-13.1q-.246-6.824,3.058-9.559t8.317-.085q5.6,2.959,9.584,10.709l-2.987,3.159q-2.553-5.311-6.134-7.2-2.867-1.512-4.811-.066t-1.791,5.729a17.233,17.233,0,0,0,2.166,7.886A12.143,12.143,0,0,0,625.327,206.012Z" transform="translate(-613.156 -179.441)"/></g><path class="av" d="M645.056,74.282v7.98l102.749,59.5v-7.93Z" transform="translate(-561.246 7.95)"/><path class="av" d="M645.056,99.119v7.98L710.2,144.94v-7.929Z" transform="translate(-561.246 4.737)"/><path class="av" d="M645.056,133.59v7.98l102.749,59.5v-7.929Z" transform="translate(-561.246 0.278)"/><path class="av" d="M645.056,158.426v7.981L710.2,204.247v-7.93Z" transform="translate(-561.246 -2.934)"/><path class="av" d="M645.056,192.9v7.98l102.749,59.5v-7.929Z" transform="translate(-561.246 -7.393)"/><path class="av" d="M645.056,217.733v7.98L710.2,263.554v-7.929Z" transform="translate(-561.246 -10.605)"/></g></g></g></svg>