<svg xmlns="http://www.w3.org/2000/svg" width="480.066" height="202.505" viewBox="0 0 480.066 202.505"><defs><style>.a{fill:#3c5185;}</style></defs><g transform="translate(-1.457 0)"><path class="a" d="M2397.087,277.625l1.017,19.755-1.376.06a25.586,25.586,0,0,0-2.575-8.321,17.85,17.85,0,0,0-5.208-5.807,17.444,17.444,0,0,0-6.645-2.963,47.869,47.869,0,0,0-10.177-.868h-13.709V315.4h3.592a34.859,34.859,0,0,0,8.2-.719,9.143,9.143,0,0,0,4.49-2.574,10.891,10.891,0,0,0,2.485-4.1,35.925,35.925,0,0,0,1.347-6.975l1.376.06-.239,32.088h-1.377a32.8,32.8,0,0,0-1.586-7.423,14.081,14.081,0,0,0-2.9-4.79,10.577,10.577,0,0,0-4.669-2.813,24.933,24.933,0,0,0-7.3-.9h-3.412v13.709q0,8.2.419,11.943a19.639,19.639,0,0,0,1.616,6.256,12.889,12.889,0,0,0,6.2,6.316q4.161,2.005,10.985,2a34.372,34.372,0,0,0,12.033-1.826,17.973,17.973,0,0,0,7.9-5.657,22.1,22.1,0,0,0,3.5-5.867,51.918,51.918,0,0,0,2.484-8.68l1.377.06-.778,23.826h-71.42v-1.377a19.413,19.413,0,0,0,5.538-.958,10.048,10.048,0,0,0,3.8-2.514,10.163,10.163,0,0,0,2.544-4.879,43.669,43.669,0,0,0,.688-9.07v-44.12a43.663,43.663,0,0,0-.688-9.07,10.163,10.163,0,0,0-2.544-4.879,9.568,9.568,0,0,0-3.742-2.514,19.613,19.613,0,0,0-5.6-.958v-1.377Z" transform="translate(-2331.274 -275.529)"/><path class="a" d="M2451.267,361.376a32.2,32.2,0,0,1-.6-6.345,35.491,35.491,0,0,1-8.339,4.131,27.328,27.328,0,0,1-8.4,1.257,23.3,23.3,0,0,1-15.543-5.448,22.739,22.739,0,0,1-6.337-8.71,29.163,29.163,0,0,1-2.212-11.465,30.687,30.687,0,0,1,2.391-12.182,25.088,25.088,0,0,1,6.7-9.309,24.313,24.313,0,0,1,16.2-5.748,20.574,20.574,0,0,1,7.771,1.317,31.89,31.89,0,0,1,7.532,4.79V291.53q0-6.5-2.169-9.365t-7.17-2.864v-1.437l18.379-2.335v69.284q0,6.753,2.155,9.624t7.124,2.869v1.5Zm-.84-27.9a79.959,79.959,0,0,0-.716-12.482,16.618,16.618,0,0,0-2.564-6.794,11.616,11.616,0,0,0-4.323-3.652,12.183,12.183,0,0,0-5.575-1.377q-6.381,0-11.031,5.986a27.153,27.153,0,0,0-4.384,8.561,33.627,33.627,0,0,0-1.579,10.237,34.737,34.737,0,0,0,1.49,10.087,28.088,28.088,0,0,0,4.055,8.471q4.473,6.107,10.972,6.107a11.985,11.985,0,0,0,5.9-1.557,12.373,12.373,0,0,0,4.531-4.31,19.5,19.5,0,0,0,2.5-7.094A78.033,78.033,0,0,0,2450.427,333.479Z" transform="translate(-2333.311 -275.529)"/><path class="a" d="M2515.141,360.419a35.683,35.683,0,0,1-.778-7.473,24.238,24.238,0,0,1-17.72,7.473q-7.485,0-12.033-3.647-4.431-3.588-4.43-10.166V325.8l-.06-4.545a26.126,26.126,0,0,0-.479-5.92,6.811,6.811,0,0,0-1.8-3.169q-1.737-1.613-6.226-2.391v-1.318h17.6v30.352a72.213,72.213,0,0,0,.449,9.489,13.471,13.471,0,0,0,1.642,5.059,8.9,8.9,0,0,0,3.762,3.2,12.6,12.6,0,0,0,5.495,1.168,15.1,15.1,0,0,0,6.27-1.316,11.3,11.3,0,0,0,4.6-3.587,12.823,12.823,0,0,0,2.3-5.381,61.854,61.854,0,0,0,.568-10.045V325.677l-.06-4.424a27.731,27.731,0,0,0-.449-5.92,6.373,6.373,0,0,0-1.826-3.169q-1.675-1.613-6.226-2.391v-1.318h17.6v32.467a76,76,0,0,0,.329,8.64,10.225,10.225,0,0,0,1.287,4.036,6.742,6.742,0,0,0,2.514,2.421,10.706,10.706,0,0,0,4.131.927V358.2Z" transform="translate(-2334.922 -275.083)"/><path class="a" d="M2579.556,348.026l1.2.419q-2.1,6.346-6.405,9.16t-11.853,2.814q-12.095,0-18.978-7.184-6.7-7.063-6.7-17.84a30.525,30.525,0,0,1,1.855-10.417,26.844,26.844,0,0,1,5.089-8.8,23.94,23.94,0,0,1,8.95-6.4,29.727,29.727,0,0,1,11.584-2.216q8.679,0,13.589,3.892,2.993,2.4,2.993,5.268a4.4,4.4,0,0,1-1.257,3.2,4.108,4.108,0,0,1-3.053,1.287q-3.892,0-5.747-5.687a25.052,25.052,0,0,0-1.344-3.592,5.069,5.069,0,0,0-1.462-1.676,7.394,7.394,0,0,0-4.539-1.378,11.554,11.554,0,0,0-6.508,1.976,16.461,16.461,0,0,0-4.449,4.34,26.768,26.768,0,0,0-3.195,6.556,36.13,36.13,0,0,0-2.09,11.853,29.377,29.377,0,0,0,1.912,10.417,24.44,24.44,0,0,0,5.2,8.5,16.158,16.158,0,0,0,12.07,5.388,13.091,13.091,0,0,0,9.5-3.652A18.9,18.9,0,0,0,2579.556,348.026Z" transform="translate(-2336.427 -275.092)"/><path class="a" d="M2637.027,353.534l1.018.6q-2.156,6.285-9.878,6.286a11.527,11.527,0,0,1-7.074-2.1,15.8,15.8,0,0,1-3.837-4.789,39.713,39.713,0,0,1-6.056,4.73,18.412,18.412,0,0,1-9.053,2.155q-6.6,0-10.462-3.173a10.5,10.5,0,0,1-3.867-8.561,11.635,11.635,0,0,1,3.173-8.321,14.116,14.116,0,0,1,4.131-2.963,39.372,39.372,0,0,1,6.764-2.245q5.208-1.317,7.693-2.216a15.923,15.923,0,0,0,4.161-2.155,7.2,7.2,0,0,0,2.634-3.232,14.726,14.726,0,0,0,.718-5.149q0-7-2.634-10.237a8.628,8.628,0,0,0-3.083-2.394,9.015,9.015,0,0,0-3.921-.9,7.783,7.783,0,0,0-4.37,1.258,7.692,7.692,0,0,0-2.874,3.472l-1.5,3.472a4.317,4.317,0,0,1-4.31,2.814,4.687,4.687,0,0,1-3.412-1.347,4.535,4.535,0,0,1-1.377-3.383q0-3.053,4.318-5.148a26.217,26.217,0,0,1,5.786-1.766,34.4,34.4,0,0,1,6.745-.689,33.372,33.372,0,0,1,7.736.958,26.69,26.69,0,0,1,6.716,2.455,9.512,9.512,0,0,1,4.857,5.747,26.35,26.35,0,0,1,.48,6.046v22.151a39.773,39.773,0,0,0,.478,7.662q1.018,4.253,4.91,4.251a5.434,5.434,0,0,0,2.9-.659A10.336,10.336,0,0,0,2637.027,353.534Zm-19.815-23.587a40.05,40.05,0,0,1-7.1,4.73,62.067,62.067,0,0,0-6.027,3.532,15.906,15.906,0,0,0-3.043,2.873,12.478,12.478,0,0,0-2.806,8.082,9.749,9.749,0,0,0,2.178,6.525,6.919,6.919,0,0,0,5.521,2.575,9.424,9.424,0,0,0,5.52-1.826,11.278,11.278,0,0,0,3.909-4.879q1.848-4.011,1.85-11.614Z" transform="translate(-2337.796 -275.092)"/><path class="a" d="M2653.61,308.455h15.206v2.275H2653.61v34.842q0,6.287,2.148,8.98a7.59,7.59,0,0,0,2.983,2.334,9.558,9.558,0,0,0,4,.839,8.358,8.358,0,0,0,4.475-1.108,15.454,15.454,0,0,0,3.938-4.041l.9.779a12.43,12.43,0,0,1-5.538,5.328,20.231,20.231,0,0,1-8.89,1.736q-7.065,0-10.3-2.754a6.641,6.641,0,0,1-2.275-3.442,32.231,32.231,0,0,1-.539-7.214V310.73H2638.1v-.957a16.84,16.84,0,0,0,7.189-4.85,24,24,0,0,0,3.193-4.4,31.261,31.261,0,0,0,2.291-5.657l.6-1.976h2.23Z" transform="translate(-2338.797 -275.529)"/><path class="a" d="M2670.552,309.713l17.241-2.156v34.48l.06,4.534a26.333,26.333,0,0,0,.479,5.935,6.189,6.189,0,0,0,1.856,3.132q1.675,1.611,6.166,2.446v1.257h-26.461v-1.257a15.528,15.528,0,0,0,5.149-1.34,6.151,6.151,0,0,0,2.514-2.949,12.878,12.878,0,0,0,.928-4.139q.27-2.769.27-8.012V326.932a83.233,83.233,0,0,0-.3-8.606,9.313,9.313,0,0,0-1.317-4.021,6.333,6.333,0,0,0-2.454-2.412,10.788,10.788,0,0,0-4.131-.923Zm12.482-23.647a5.333,5.333,0,0,1-3.883-1.5,5.327,5.327,0,0,1,.03-7.513,5.625,5.625,0,0,1,7.706,0,5.327,5.327,0,0,1,.03,7.513A5.335,5.335,0,0,1,2683.034,286.066Z" transform="translate(-2339.443 -275.529)"/><path class="a" d="M2701.622,334.078a24.511,24.511,0,0,1,7.184-17.3,28.214,28.214,0,0,1,41.726,0,24.652,24.652,0,0,1,.359,34.422,29.034,29.034,0,0,1-42.444,0,26.049,26.049,0,0,1-5.059-8.022A24.349,24.349,0,0,1,2701.622,334.078Zm10.9-.688q0,10.405,4.67,17.639,5.266,8.073,12.871,8.073a12.258,12.258,0,0,0,6.286-1.794,16.559,16.559,0,0,0,5.268-5.023,28.036,28.036,0,0,0,3.772-8.4,35.724,35.724,0,0,0,1.436-9.777,33.7,33.7,0,0,0-1.527-9.9,29.31,29.31,0,0,0-4.1-8.581q-4.91-6.756-12.033-6.757-6.766,0-11.674,7.116Q2712.517,323.106,2712.517,333.39Z" transform="translate(-2342.524 -275.092)"/><path class="a" d="M2780.1,307.557a27.81,27.81,0,0,1,.844,6.5v.962a24.059,24.059,0,0,1,17.66-7.463q7.662,0,12.332,3.588,4.609,3.528,4.61,10.046v25.353a26.467,26.467,0,0,0,.479,5.949,6.206,6.206,0,0,0,1.856,3.139q1.675,1.616,6.166,2.452v1.257h-26.461v-1.257a15.517,15.517,0,0,0,5.149-1.345,6.164,6.164,0,0,0,2.514-2.96,13.007,13.007,0,0,0,.928-4.155q.268-2.781.269-7.983V328.966A72.771,72.771,0,0,0,2806,319.4a11.754,11.754,0,0,0-1.7-4.9,9.054,9.054,0,0,0-3.942-3.258,13.567,13.567,0,0,0-5.673-1.166,14.932,14.932,0,0,0-6.242,1.315,11.361,11.361,0,0,0-4.569,3.587,12.854,12.854,0,0,0-2.359,5.412,61.274,61.274,0,0,0-.567,10.015V342.12l.059,4.424a26.535,26.535,0,0,0,.479,5.95,6.215,6.215,0,0,0,1.856,3.138q1.676,1.616,6.166,2.452v1.257h-26.46v-1.257a15.544,15.544,0,0,0,5.149-1.34,6.152,6.152,0,0,0,2.514-2.949,12.938,12.938,0,0,0,.928-4.139q.268-2.769.269-8.012V326.932a83.293,83.293,0,0,0-.3-8.606,9.323,9.323,0,0,0-1.317-4.021,6.344,6.344,0,0,0-2.455-2.412,10.786,10.786,0,0,0-4.13-.923v-1.257Z" transform="translate(-2342.524 -275.095)"/><path class="a" d="M2347.617,408.932v28.551l.055,4.149a24.18,24.18,0,0,0,.437,5.432,5.67,5.67,0,0,0,1.7,2.865q1.529,1.475,5.63,2.238v1.148h-24.16v-1.148a14.149,14.149,0,0,0,4.7-1.228,5.626,5.626,0,0,0,2.295-2.7,11.835,11.835,0,0,0,.847-3.794q.246-2.538.247-7.343V408.932h-7.926v-2.078h7.926V393.518a19.092,19.092,0,0,1,1.237-7.6,13.188,13.188,0,0,1,4.43-5.138,22.06,22.06,0,0,1,6.986-3.252,31.665,31.665,0,0,1,8.719-1.176,13.673,13.673,0,0,1,6.832,1.476,4.432,4.432,0,0,1,2.569,3.936,3.758,3.758,0,0,1-1.066,2.733,3.49,3.49,0,0,1-2.6,1.093,4.254,4.254,0,0,1-2.569-.793,8.786,8.786,0,0,1-2.187-2.6,13.712,13.712,0,0,0-2.514-3.307,4.155,4.155,0,0,0-2.679-.793,9.372,9.372,0,0,0-3.935.848,7.4,7.4,0,0,0-2.9,2.214,9.285,9.285,0,0,0-1.585,4.017,44.413,44.413,0,0,0-.437,7.188v14.484h10.768v2.078Z" transform="translate(-2206.274 -252.81)"/><path class="a" d="M2364.452,430.249a22.383,22.383,0,0,1,6.559-15.8,25.762,25.762,0,0,1,38.1,0,22.509,22.509,0,0,1,.328,31.429,26.51,26.51,0,0,1-38.754,0,23.808,23.808,0,0,1-4.619-7.324A22.245,22.245,0,0,1,2364.452,430.249Zm9.948-.628q0,9.5,4.263,16.105,4.811,7.371,11.752,7.371a11.194,11.194,0,0,0,5.74-1.638,15.131,15.131,0,0,0,4.81-4.586,25.579,25.579,0,0,0,3.443-7.67,32.571,32.571,0,0,0,1.312-8.927,30.746,30.746,0,0,0-1.394-9.035,26.76,26.76,0,0,0-3.744-7.835q-4.482-6.168-10.986-6.169-6.178,0-10.659,6.5Q2374.4,420.232,2374.4,429.621Z" transform="translate(-2207.274 -252.81)"/><path class="a" d="M2436.165,414.445a15.89,15.89,0,0,1,4.428-5.188,17.4,17.4,0,0,1,10.331-3.223,8.131,8.131,0,0,1,5.411,1.585,4.392,4.392,0,0,1,1.7,3.5,3.353,3.353,0,0,1-1.012,2.512,3.567,3.567,0,0,1-2.6.983,4.2,4.2,0,0,1-3.225-1.528l-1.7-1.856a6.351,6.351,0,0,0-4.755-2.13q-3.717,0-5.794,4.8t-2.077,13.374v10.209l.055,4.149a24.177,24.177,0,0,0,.437,5.432,5.67,5.67,0,0,0,1.7,2.865q1.529,1.475,5.63,2.238v1.148h-24.16v-1.148a14.187,14.187,0,0,0,4.7-1.223,5.611,5.611,0,0,0,2.3-2.693,11.776,11.776,0,0,0,.848-3.779q.246-2.529.246-7.315V423.725a75.909,75.909,0,0,0-.274-7.858,8.489,8.489,0,0,0-1.2-3.671,5.8,5.8,0,0,0-2.241-2.2,9.838,9.838,0,0,0-3.772-.843V408l14.091-1.968A45.731,45.731,0,0,1,2436.165,414.445Z" transform="translate(-2211.479 -250.81)"/><path class="a" d="M2534.225,448.013l.929.547q-1.967,5.739-9.018,5.739a10.532,10.532,0,0,1-6.46-1.913,14.45,14.45,0,0,1-3.5-4.373,36.148,36.148,0,0,1-5.529,4.318,16.806,16.806,0,0,1-8.266,1.968q-6.022,0-9.552-2.9a9.583,9.583,0,0,1-3.531-7.816,10.626,10.626,0,0,1,2.9-7.6,12.9,12.9,0,0,1,3.772-2.705,36.028,36.028,0,0,1,6.176-2.05q4.755-1.2,7.024-2.023a14.545,14.545,0,0,0,3.8-1.967,6.588,6.588,0,0,0,2.405-2.952,13.445,13.445,0,0,0,.656-4.7q0-6.395-2.405-9.347a7.9,7.9,0,0,0-2.816-2.186,8.224,8.224,0,0,0-3.58-.82,7.11,7.11,0,0,0-3.99,1.148,7.024,7.024,0,0,0-2.623,3.17l-1.367,3.171a3.942,3.942,0,0,1-3.935,2.569,4.28,4.28,0,0,1-3.116-1.23,4.138,4.138,0,0,1-1.257-3.089q0-2.787,3.942-4.7a23.974,23.974,0,0,1,5.283-1.613,31.5,31.5,0,0,1,6.159-.629,30.5,30.5,0,0,1,7.063.875,24.371,24.371,0,0,1,6.132,2.241,8.683,8.683,0,0,1,4.434,5.248,24,24,0,0,1,.439,5.52v20.224a36.336,36.336,0,0,0,.437,7q.929,3.881,4.482,3.881a4.958,4.958,0,0,0,2.651-.6A9.424,9.424,0,0,0,2534.225,448.013Zm-18.092-21.536a36.538,36.538,0,0,1-6.484,4.318,57.2,57.2,0,0,0-5.5,3.225,14.581,14.581,0,0,0-2.778,2.624,11.4,11.4,0,0,0-2.561,7.379,8.907,8.907,0,0,0,1.988,5.958,6.317,6.317,0,0,0,5.041,2.35,8.608,8.608,0,0,0,5.04-1.667,10.285,10.285,0,0,0,3.568-4.454q1.689-3.661,1.69-10.6Z" transform="translate(-2215.252 -251.81)"/><path class="a" d="M2535.81,378.486l15.742-1.968v60.956l.055,4.152a24.2,24.2,0,0,0,.437,5.435,5.67,5.67,0,0,0,1.7,2.867q1.529,1.476,5.63,2.239v1.148h-24.16v-1.148a14.145,14.145,0,0,0,4.7-1.227,5.633,5.633,0,0,0,2.3-2.7,11.894,11.894,0,0,0,.847-3.793q.246-2.538.246-7.341V394.261a76.877,76.877,0,0,0-.273-7.86,8.594,8.594,0,0,0-1.2-3.71,5.575,5.575,0,0,0-2.241-2.183,10.2,10.2,0,0,0-3.772-.819Z" transform="translate(-2212.17 -250.81)"/><path class="a" d="M2562.921,378.486l15.742-1.968v60.956l.055,4.152a24.13,24.13,0,0,0,.438,5.435,5.669,5.669,0,0,0,1.694,2.867q1.53,1.476,5.63,2.239v1.148h-24.16v-1.148a14.145,14.145,0,0,0,4.7-1.227,5.628,5.628,0,0,0,2.3-2.7,11.886,11.886,0,0,0,.847-3.793q.246-2.538.246-7.341V394.261a76.606,76.606,0,0,0-.273-7.86,8.594,8.594,0,0,0-1.2-3.71,5.575,5.575,0,0,0-2.241-2.183,10.2,10.2,0,0,0-3.772-.819Z" transform="translate(-2211.821 -250.81)"/></g></svg>