<svg xmlns="http://www.w3.org/2000/svg" width="154.481" height="118.367" viewBox="0 0 154.481 118.367"><defs><style>.a{fill:#8fcaf5;}.b{fill:none;stroke:#344154;stroke-linecap:round;stroke-linejoin:round;stroke-width:3px;}</style></defs><g transform="translate(1.5 1.5)"><path class="a" d="M1164.872,1676.239h126.906l-5.356-6.87H1170.228Z" transform="translate(-1151.569 -1581.057)"/><g transform="translate(0 82.312)"><path class="b" d="M1288.337,1663.369l14.714,18.871H1151.569l14.714-18.871h122.053" transform="translate(-1151.569 -1663.369)"/><path class="b" d="M1303.05,1682.24h0a13.565,13.565,0,0,1-5.873,11.174l-.9.617a13.568,13.568,0,0,1-7.693,2.393H1166.032a13.571,13.571,0,0,1-7.694-2.393l-.9-.617a13.566,13.566,0,0,1-5.874-11.174h0" transform="translate(-1151.569 -1663.369)"/><line class="b" x2="12.941" transform="translate(69.27 25.963)"/></g><path class="b" d="M1265.364,1581.774h13.926a9.1,9.1,0,0,1,9.1,9.1v72.494" transform="translate(-1151.569 -1581.057)"/><path class="b" d="M1171.359,1662.651v-72.494a9.1,9.1,0,0,1,9.1-9.1h90.034" transform="translate(-1151.569 -1581.057)"/><line class="b" x2="105.579" transform="translate(22.668 72.666)"/><circle class="b" cx="6.236" cy="6.236" r="6.236" transform="translate(53.138 20.967)"/><path class="b" d="M1274.14,1594.989a6.236,6.236,0,1,0-6.236,6.236A6.236,6.236,0,0,0,1274.14,1594.989Z" transform="translate(-1151.569 -1581.057)"/><path class="b" d="M1244.348,1628.641a3.749,3.749,0,1,0-3.748,3.749A3.748,3.748,0,0,0,1244.348,1628.641Z" transform="translate(-1151.569 -1581.057)"/><path class="b" d="M1192.412,1641.731a3.748,3.748,0,1,0-3.749,3.749A3.748,3.748,0,0,0,1192.412,1641.731Z" transform="translate(-1151.569 -1581.057)"/><line class="b" y1="25.401" x2="15.6" transform="translate(40.881 32.061)"/><line class="b" x2="17.528" y2="13.115" transform="translate(66.374 31.439)"/><line class="b" y1="27.592" x2="20.906" transform="translate(91.193 17.932)"/></g></svg>