<svg xmlns="http://www.w3.org/2000/svg" width="125.459" height="131.625" viewBox="0 0 125.459 131.625"><defs><style>.a,.b{fill:none;stroke:#344154;stroke-linecap:round;stroke-linejoin:round;stroke-width:3px;}.b{stroke-dasharray:0 9.975;}.c{fill:#8fcaf5;}</style></defs><g transform="translate(1.549 1.5)"><g transform="translate(0 104.211)"><path class="a" d="M1623.82,406.282h-53.676a3.99,3.99,0,0,1-3.49-5.923l9.8-17.687h64.455" transform="translate(-1566.149 -382.672)"/><g transform="translate(15.191 11.805)"><line class="a"/><line class="b" x2="34.953" transform="translate(9.975)"/><line class="a" transform="translate(49.926)"/></g></g><g transform="translate(1.208)"><path class="a" d="M1640.8,362.094h-65.054a8.392,8.392,0,0,1-8.392-8.392V286.853a8.392,8.392,0,0,1,8.392-8.392h95.864a8.392,8.392,0,0,1,8.392,8.392v56.511" transform="translate(-1567.357 -278.461)"/><path class="a" d="M1594.95,362.094l-5.12,12.943h51.185" transform="translate(-1567.357 -278.461)"/><g transform="translate(79.445 70.904)"><rect class="a" width="41.756" height="57.72"/><rect class="c" width="30.038" height="10.185" transform="translate(5.859 5.863)"/><g transform="translate(11.487 30.866)"><line class="a" x2="2.983"/><line class="a" x2="2.983" transform="translate(7.9)"/><line class="a" x2="2.983" transform="translate(15.799)"/><line class="a" x2="2.983" transform="translate(0 6.991)"/><line class="a" x2="2.983" transform="translate(7.9 6.991)"/><line class="a" x2="2.983" transform="translate(15.799 6.991)"/><line class="a" x2="2.983" transform="translate(0 13.981)"/><line class="a" x2="2.983" transform="translate(7.9 13.981)"/><line class="a" x2="2.983" transform="translate(15.799 13.981)"/></g></g><g transform="translate(12.208 17.221)"><g transform="translate(13.725 3.46)"><path class="a" d="M1593.289,349.225V316.257h10.241v32.967" transform="translate(-1593.289 -299.142)"/><line class="a" x2="10.241" transform="translate(10.241 30.442)"/><path class="a" d="M1613.771,349.225V299.142h10.241v50.083" transform="translate(-1593.289 -299.142)"/></g><path class="a" d="M1579.565,295.682v53.683h59.295" transform="translate(-1579.565 -295.682)"/></g><circle class="a" cx="14.411" cy="14.411" r="14.411" transform="translate(71.502 18.146)"/><path class="a" d="M1653.27,296.607v14.411h14.411" transform="translate(-1567.357 -278.461)"/></g></g></svg>