<svg xmlns="http://www.w3.org/2000/svg" width="131.239" height="134.754" viewBox="0 0 131.239 134.754"><defs><style>.a,.b{fill:none;stroke:#344154;stroke-linecap:round;stroke-width:3px;}.a{stroke-linejoin:round;}.b{stroke-miterlimit:10;}.c{fill:#8fcaf5;}</style></defs><g transform="translate(1.51 1.514)"><g transform="translate(82.157 58.36)"><path class="a" d="M545.456,1490.434v1.458a9,9,0,0,0,9,9h3.854a9,9,0,0,0,9-9v-1.458l-.128-4.95v-.075a11.588,11.588,0,0,1,3.385-8.241,20.151,20.151,0,1,0-28.546-.176,12.027,12.027,0,0,1,3.561,8.42v.072h10.8" transform="translate(-536.234 -1442.714)"/></g><g transform="translate(76.934 49.016)"><line class="a" y1="4.624" transform="translate(25.373)"/><line class="a" x1="1.581" y1="4.345" transform="translate(15.281 1.963)"/><line class="a" x1="2.972" y1="3.542" transform="translate(6.469 7.26)"/><line class="a" x1="4.004" y1="2.312" transform="translate(0 15.251)"/><line class="a" y1="4.345" x2="1.581" transform="translate(33.884 1.963)"/><line class="a" y1="3.542" x2="2.972" transform="translate(41.305 7.26)"/><line class="a" y1="2.312" x2="4.004" transform="translate(46.742 15.251)"/></g><g transform="translate(40.923)"><path class="b" d="M495,1447.338c0,5.985,5.968,11.379,11.883,9.546a9.063,9.063,0,0,0,6.373-8.587,10.929,10.929,0,0,0,10.907-15.622,12.561,12.561,0,0,0-1.708-20.22c12.035-6.9.667-25.459-10.981-16.963A8.519,8.519,0,1,0,495,1391.274Z" transform="translate(-495 -1384.354)"/><path class="b" d="M511.474,1395.492s-2.111,4.885-7.242,4.505" transform="translate(-495 -1384.354)"/><path class="b" d="M522.455,1412.455s-6.567,1.954-10.114-2.48" transform="translate(-495 -1384.354)"/><path class="b" d="M524.163,1432.675s-6.58.866-9.241-3.22" transform="translate(-495 -1384.354)"/><path class="b" d="M513.256,1448.3s-6.617-1.326-6.363-7.407" transform="translate(-495 -1384.354)"/></g><path class="b" d="M487.568,1447.338v-56.064a8.519,8.519,0,1,0-16.473,4.218c-11.648-8.5-23.017,10.067-10.981,16.963a12.561,12.561,0,0,0-1.708,20.22,10.929,10.929,0,0,0,10.907,15.622q0,.378.036.749a8.854,8.854,0,0,0,8.928,7.838h3.285" transform="translate(-454.077 -1384.354)"/><path class="b" d="M471.1,1395.492s2.11,4.885,7.242,4.505" transform="translate(-454.077 -1384.354)"/><path class="b" d="M460.114,1412.455s6.566,1.954,10.114-2.48" transform="translate(-454.077 -1384.354)"/><path class="b" d="M458.406,1432.675s6.58.866,9.24-3.22" transform="translate(-454.077 -1384.354)"/><path class="b" d="M469.313,1448.3s6.617-1.326,6.363-7.407" transform="translate(-454.077 -1384.354)"/><path class="a" d="M508.371,1497.167a16.324,16.324,0,0,0,12.637-3.18c4.111-3.36,6.214-9.985,1.4-13.945a9.485,9.485,0,0,0-5.649-2.044c-8.395-.349-14.88,7.892-14.638,15.967.276,9.2,9.083,20.484,24.895,21.893a62.157,62.157,0,0,0,18.972-1.591,13.806,13.806,0,0,0,10.4-13.373h0" transform="translate(-454.077 -1384.354)"/><path class="a" d="M487.568,1447.338c0,26.551,2.051,40.576,14.659,47.991" transform="translate(-454.077 -1384.354)"/><path class="c" d="M555.181,1458.372a15.49,15.49,0,0,1,14.359,9.691,14.147,14.147,0,0,0-13.154-19.35q-.507,0-1.019.035a14.061,14.061,0,0,0-12.939,16.329A15.47,15.47,0,0,1,555.181,1458.372Z" transform="translate(-454.077 -1384.354)"/></g></svg>