<svg xmlns="http://www.w3.org/2000/svg" width="121.779" height="123.642" viewBox="0 0 121.779 123.642"><defs><style>.a{fill:none;stroke:#344154;stroke-linecap:round;stroke-linejoin:round;stroke-width:3px;}.b{fill:#8fcaf5;}</style></defs><g transform="translate(1.5 1.5)"><path class="a" d="M871.834,1663.538c10.136-.625,20.659-1.862,32.329-3.71" transform="translate(-796.678 -1579.677)"/><path class="a" d="M808.81,1659.828c11.7,1.852,22.238,3.09,32.393,3.714" transform="translate(-796.678 -1579.677)"/><path class="a" d="M829.223,1684.72c-6.488.674-13.233,1.58-20.413,2.717" transform="translate(-796.678 -1579.677)"/><path class="a" d="M904.163,1687.437c-6.9-1.094-13.407-1.973-19.665-2.639" transform="translate(-796.678 -1579.677)"/><path class="a" d="M870.385,1673.06a13.866,13.866,0,1,0-13.865,13.866A13.865,13.865,0,0,0,870.385,1673.06Z" transform="translate(-796.678 -1579.677)"/><path class="b" d="M856.52,1673.06a8.761,8.761,0,0,1,7.579,4.383,8.765,8.765,0,1,0-15.159,0A8.764,8.764,0,0,1,856.52,1673.06Z" transform="translate(-796.678 -1579.677)"/><path class="a" d="M860.4,1686.668l13.651,13.651v-9.73h9.729l-13.652-13.651" transform="translate(-796.678 -1579.677)"/><path class="a" d="M852.641,1686.668l-13.5,13.5v-9.73h-9.729l13.5-13.5" transform="translate(-796.678 -1579.677)"/><path class="a" d="M904.163,1659.828c2.21,0,4,6.18,4,13.8s-1.792,13.805-4,13.805" transform="translate(-796.678 -1579.677)"/><path class="a" d="M907.483,1665.658h7.239a43.606,43.606,0,0,1,0,15.95h-7.4" transform="translate(-796.678 -1579.677)"/><path class="a" d="M804.651,1665.658h-7.239a43.661,43.661,0,0,0,0,15.95h7.395" transform="translate(-796.678 -1579.677)"/><path class="a" d="M808.81,1659.828c-2.21,0-4,6.18-4,13.8s1.792,13.805,4,13.805" transform="translate(-796.678 -1579.677)"/><g transform="translate(25.449)"><path class="a" d="M890.007,1655.843v-76.166H835.7l-13.569,13.569v62.6" transform="translate(-822.127 -1579.677)"/><path class="a" d="M838.591,1585.19v10.952H827.639" transform="translate(-822.127 -1579.677)"/></g><g transform="translate(38.912 26.471)"><line class="a" x1="6.658" y2="17.931"/><line class="a" x2="6.658" y2="17.931" transform="translate(6.658)"/><line class="a" x2="7.477" transform="translate(2.92 10.069)"/></g><line class="a" x2="25.281" transform="translate(59.389 44.402)"/><line class="a" x2="25.281" transform="translate(59.389 35.437)"/><line class="a" x2="45.758" transform="translate(38.912 62.778)"/><line class="a" x2="45.758" transform="translate(38.912 53.813)"/></g></svg>