<svg xmlns="http://www.w3.org/2000/svg" width="925.467" height="491.614" viewBox="0 0 925.467 491.614"><defs><style>.a,.ab,.ac,.j{fill:#4a65a3;}.b{fill:#f7a66a;}.c,.e,.g,.h{fill:#7c5335;}.c,.i,.j,.s{opacity:0.5;}.d{fill:#7ea7df;}.ac,.ad,.e,.v{opacity:0.3;}.f,.g{opacity:0.29;}.ab,.h,.x,.z{opacity:0.2;}.i,.n{fill:#2d3d64;}.k{fill:#5d7dbe;}.l,.v{fill:#3c5185;}.m{fill:#9eb1d8;}.o{fill:#dbeaf9;}.p,.s,.x{fill:#a5cbef;}.q{fill:#edf3fa;}.r{fill:#f6f9fc;}.t{fill:#c2d6f0;opacity:0.51;}.u{fill:#7d97cb;}.ad,.w{fill:#fff;}.y{fill:#b68a00;opacity:0.52;}.z{fill:#1e2943;}.aa{fill:#d1e1f2;}.ae{fill:#92a3c8;}.af{fill:#63749d;}</style></defs><g transform="translate(0 0)"><g transform="translate(193.219 23.014)"><path class="a" d="M1101.047,1330.951a461.251,461.251,0,0,1-44.751,26.054,50.911,50.911,0,0,0-28.191,49.045c3.241,47.677,4.475,125.354-20.87,133.792h217.957l5.577-116.422a74.279,74.279,0,0,0-25.723-59.839l-28.415-24.47Z" transform="translate(-1007.235 -1228.679)"/><path class="b" d="M1064.806,1346.646c2.234-8.1,12.934-10.436,17.624-17.405,4.913-7.3,3.01-19.2,10.761-23.361l10.051-2.693c12.127-.383,24.385-.311,36.223,2.348s23.337,8.1,31.505,17.068c4.177,4.587,7.38,9.964,11.185,14.864,6.282,8.091,14.212,14.892,19.7,23.542a68.567,68.567,0,0,1,7.683,17.819c6.573,22.794,5.037,47.4-1.35,70.248-3.023,10.814-7.248,21.565-14.617,30.038-4.685,5.389-10.486,9.677-16.318,13.8-3.773,2.664-7.658,5.315-12.073,6.669-6.581,2.016-13.673.964-20.433-.326-5.486-1.047-11.124-2.318-15.637-5.607-4.012-2.923-6.816-7.227-8.934-11.716-7.008-14.846-7.858-33.166-19.508-44.732-7.611-7.554-19.274-11.522-23.587-21.339-2.233-5.083-2.021-10.852-1.933-16.4.192-12.113-.484-24.607-5.608-35.585C1066.958,1358.343,1063.184,1352.526,1064.806,1346.646Z" transform="translate(-1007.235 -1228.679)"/><path class="b" d="M1092.681,1295.615c0,36.964,25.787,66.937,50.268,66.937s44.328-29.965,44.328-66.929,1.113-67.724-44.328-66.929C1102.187,1229.406,1092.681,1258.651,1092.681,1295.615Z" transform="translate(-1007.235 -1228.679)"/><path class="c" d="M1119.347,1251.856l2.636-1.7a115.6,115.6,0,0,0-13.036,77.56A95.879,95.879,0,0,1,1119.347,1251.856Z" transform="translate(-1007.235 -1228.679)"/><path class="d" d="M1142.949,1362.552a32.151,32.151,0,0,1-7.812-.989,34.983,34.983,0,0,1-24.369-23.188,66.7,66.7,0,0,1-3.3-15.694c-.978-12.362,2.591-25.562,11.675-34,3.636-3.378,7.984-5.876,12.291-8.342l27.092-15.519a4.276,4.276,0,0,1,6.139.394c5.137,4.179,10.4,8.5,13.614,14.291,5.135,9.243,4.427,21,7.919,30.748C1181.782,1340.175,1164.1,1362.552,1142.949,1362.552Z" transform="translate(-1007.235 -1228.679)"/><path class="e" d="M1085.36,1363.607c3.169,3.347,7.183,6.164,11.272,9.591,8.269,6.932,5.879,18.408,10.746,27.19,3.748,6.761,10.335,12.278,14.3,19.167a95.247,95.247,0,0,1,9.3,22.285c2.693,9.816,3.815,20.075,7.418,29.6,1.942,5.13,13.919,27.736,22.648,22.295-7.728,4.818-18.322,3-25.547-2.544s-11.545-14.109-14.215-22.817-3.924-17.789-6.374-26.561c-1.728-6.188-4.243-12.49-9.167-16.616-5.946-4.981-14.866-6.345-19.158-12.806-1.943-2.926-2.615-6.489-3.244-9.945q-2.508-13.784-5.018-27.568c-1.339-7.349-4.691-16.246-4.067-23.671.384-4.576,2.879-9.237,7.128-10.982-2.029,1.835-2.5,4.831-2.448,7.566A22.076,22.076,0,0,0,1085.36,1363.607Z" transform="translate(-1007.235 -1228.679)"/><path class="e" d="M1105.377,1326.829l1.271,1.23a56.357,56.357,0,0,0,5.8,28.982,18.017,18.017,0,0,0,3.477,5.1,17.266,17.266,0,0,0,5.242,3.182c18.6,7.928,42.335.989,53.733-15.707-6.669,17.709-25.524,30.033-44.421,29.035a25.468,25.468,0,0,1-11.408-2.954c-4.83-2.781-8.062-7.672-10.529-12.669C1103.011,1351.827,1100.535,1338.348,1105.377,1326.829Z" transform="translate(-1007.235 -1228.679)"/><g class="f" transform="translate(103.052 144.379)"><path class="c" d="M1110.846,1375.134a19.619,19.619,0,0,1-.559-2.076Q1110.563,1374.1,1110.846,1375.134Z" transform="translate(-1110.287 -1373.058)"/><path class="c" d="M1126.162,1389.739c6.625,1.927,12.119.242,18.434-1.535a13.165,13.165,0,0,0,3.794-1.758,6.4,6.4,0,0,1-2.681,4.214,24.428,24.428,0,0,0-3.907,3.316c-3.818,4.758.791,13.528-7.934,14.1a4.7,4.7,0,0,1-2.565-.428c-3.788-2.065-.233-9.065-3.56-11.811a8.86,8.86,0,0,0-3.057-1.281c-4.291-1.385-7.657-4.861-9.858-8.8a46.862,46.862,0,0,1-3.982-10.628A23.023,23.023,0,0,0,1126.162,1389.739Z" transform="translate(-1110.287 -1373.058)"/></g><path class="g" d="M1157.542,1391.08c4.485-3.432,8.128-8.225,9.248-13.761,2.137.614,4.638,1.157,6.423-.169a5.125,5.125,0,0,0,1.8-3.13c.835-4.014-1.288-8.548.723-12.121,1.163-2.066,3.426-3.22,5.121-4.877a11.32,11.32,0,0,0,2.358-12.394,15.861,15.861,0,0,1,5.522,5.093l1.548,5.891a121.2,121.2,0,0,1-5.137,15.693,65.863,65.863,0,0,1-3.074,7.239,36.749,36.749,0,0,1-16.8,15.833,46.521,46.521,0,0,1-22.86,4.16C1147.76,1396.716,1153.057,1394.512,1157.542,1391.08Z" transform="translate(-1007.235 -1228.679)"/><path class="g" d="M1146.617,1421.3a15.129,15.129,0,0,0,7.006.144c2.313-.667,4.2-2.3,6.054-3.835a107.61,107.61,0,0,1,26.528-16.064l2.2,1.387a111,111,0,0,1-4.7,10.193c-4.348,8.3-10.029,16.307-18.174,20.944s-19.184,5.134-26.428-.812c-5.038-4.136-7.517-10.574-9.353-16.829A95.759,95.759,0,0,0,1146.617,1421.3Z" transform="translate(-1007.235 -1228.679)"/><path class="h" d="M1085.988,1326.819q2.953-7.252,5.9-14.5l5.879.113c.3,4.888-2.6,9.322-4.052,14a24.531,24.531,0,0,0,1.1,17.3c2.489,5.447,7.109,10.54,6.325,16.477-1.662-5.543-9.444-6.622-12.575-11.488-2.19-3.4-1.614-7.848-2.752-11.73a23.979,23.979,0,0,1-1.192-4.178C1084.412,1330.751,1085.208,1328.736,1085.988,1326.819Z" transform="translate(-1007.235 -1228.679)"/><path class="i" d="M1052.248,1539.842h-45.013c25.345-8.438,24.111-86.115,20.87-133.792a50.911,50.911,0,0,1,28.191-49.045q2.52-1.252,5.017-2.554c.218-.041.433-.088.651-.127-15.284,12.6-20.031,36.326-10.775,53.841,3.391,6.418,8.444,14.158,4.288,20.109-1.209,1.732-3.163,3.15-3.361,5.253-.42,4.482,6.535,5.308,9.287,8.871,2.947,3.815.2,9.2-2.076,13.451s-3.347,10.781,1.023,12.818c1.325.618,2.89.614,4.17,1.321,3.334,1.842,2.488,7.223-.38,9.73s-6.829,3.243-10.277,4.861-6.757,5.035-5.9,8.746l20.534,1.509c-.145,5.2-6.27,7.649-11.107,9.57s-10.141,7.05-7.357,11.447a15.2,15.2,0,0,1,13.264-.237c1.79,3.6-3.371,6.707-7.388,6.966s-9.306.759-10.124,4.7c-.559,2.693,1.566,5.1,3.249,7.277A27.975,27.975,0,0,1,1052.248,1539.842Z" transform="translate(-1007.235 -1228.679)"/><path class="j" d="M1157.98,1306.12c.47-4.785,3.964-8.622,6.371-12.785,4.066-7.03,5.1-15.232,5.75-23.544a38.406,38.406,0,0,1,8.182,9.71c5.135,9.243,4.427,21,7.919,30.748-4.112,27.84-19.7,49.135-38.885,51.971a140.62,140.62,0,0,1,11.118-28.846c1.446-2.787,3.017-5.63,3.282-8.758C1162.251,1318.3,1157.359,1312.433,1157.98,1306.12Z" transform="translate(-1007.235 -1228.679)"/><path class="k" d="M1284.915,1380.18l-33.624,25.722-1.15-23.921,23.826-23.237Z" transform="translate(-1007.235 -1228.679)"/><path class="d" d="M1140.348,1519.421h9.1a16.147,16.147,0,0,0,13.879-7.9l25.667-43.168,20.457-8.447-2.157,6.028-13.893,5.87-3.372,6.21,6.211-4.14h8.212l-18.969,53.013-4.2,3.61a29.75,29.75,0,0,1-14.688,6.807l-26.245,4.194Z" transform="translate(-1007.235 -1228.679)"/><path class="a" d="M1189.838,1540.016l35.292-98.63,29.917,2.423-17.6,96.208Z" transform="translate(-1007.235 -1228.679)"/><path class="d" d="M1270.718,1366.923l2.885-2.749a3.855,3.855,0,0,0,.363-5.432h0a3.857,3.857,0,0,0-5.441.1l-2.885,2.748a3.857,3.857,0,0,0-.364,5.431h0A3.856,3.856,0,0,0,1270.718,1366.923Z" transform="translate(-1007.235 -1228.679)"/><path class="d" d="M1272.427,1377.354l9.289-6.4a3.679,3.679,0,0,0,.941-5.118h0a3.68,3.68,0,0,0-5.118-.941l-9.288,6.4a3.68,3.68,0,0,0-.942,5.119h0A3.68,3.68,0,0,0,1272.427,1377.354Z" transform="translate(-1007.235 -1228.679)"/><path class="d" d="M1276.548,1383.93l9.545-6.012a3.681,3.681,0,0,0,1.152-5.075h0a3.68,3.68,0,0,0-5.075-1.153l-9.544,6.011a3.681,3.681,0,0,0-1.154,5.075h0A3.68,3.68,0,0,0,1276.548,1383.93Z" transform="translate(-1007.235 -1228.679)"/><path class="d" d="M1284.636,1378.835l-32,22.268c5.275-4.632,2.41-11.474,2.41-11.474v-7.263l5.939-3.947a3.909,3.909,0,0,0-4.189-6.6l-11.926,7.228-15.376,29.9v32.436l21.812,2.12,9.665-29.955c19.091-5.751,24.841-29.054,24.841-29.054Z" transform="translate(-1007.235 -1228.679)"/><path class="l" d="M1289.618,1408.1l-3.994,4.266-31.369-54.035a2.784,2.784,0,0,1,2.408-4.183h0a2.785,2.785,0,0,1,2.408,1.386Z" transform="translate(-1007.235 -1228.679)"/><path class="m" d="M1288.238,1408.1l-30.547-52.566a2.782,2.782,0,0,0-1.709-1.294,2.7,2.7,0,0,0-.754.3,2.7,2.7,0,0,1,1.083.992l30.546,52.566Z" transform="translate(-1007.235 -1228.679)"/><path class="n" d="M1290.14,1409.829a2.971,2.971,0,1,1-2.971-2.971A2.971,2.971,0,0,1,1290.14,1409.829Z" transform="translate(-1007.235 -1228.679)"/><path class="g" d="M1176.643,1473.45c.8-3.71.77-7.622,2.144-11.16,2.191-5.646,7.541-9.375,10.986-14.356,3.089-4.466,4.571-9.833,5.67-15.15a132.17,132.17,0,0,0,1.889-41.631,42.476,42.476,0,0,1,6.725,21.1l-1.118,4.827c.505,11.54-.45,23.553-5.981,33.695-4.4,8.06-11.418,14.453-15.765,22.539-1.229,2.286-2.264,4.734-4.045,6.623s-4.58,3.117-7.005,2.192C1173.78,1481.043,1175.84,1477.16,1176.643,1473.45Z" transform="translate(-1007.235 -1228.679)"/><path class="e" d="M1094.711,1270.189c.74,4.778,2.3,9.42,3.283,14.168a59.644,59.644,0,0,1,.682,20.137,48.214,48.214,0,0,1-5.992-9.234A139.513,139.513,0,0,1,1094.711,1270.189Z" transform="translate(-1007.235 -1228.679)"/><path class="e" d="M1113.757,1286.984c3.335-7.894,8.227-15.247,14.875-20.654l3.505-.38a85.382,85.382,0,0,0-24.822,45.851A102.016,102.016,0,0,1,1113.757,1286.984Z" transform="translate(-1007.235 -1228.679)"/></g><path class="o" d="M1701.924,1697.279H776.457c94.494-112.581,224.057-176.06,359.345-176.06H1342.58c135.287,0,264.852,63.479,359.344,176.06Z" transform="translate(-776.457 -1205.665)"/><g transform="translate(164.944 388.015)"><path class="p" d="M1065.252,1672.317l-120.291-26.154a4.361,4.361,0,0,1-.472-8.457l134.084-40.938L1210.537,1615v3.474a10.436,10.436,0,0,1-7.112,9.892l-118.4,39.768C1082.292,1668.994,1068.069,1672.844,1065.252,1672.317Z" transform="translate(-941.401 -1593.68)"/><path class="q" d="M1065.252,1665.554l-120.291-22.479a4.36,4.36,0,0,1-.472-8.457l134.084-40.938,101.378,38.01-106.245,33.359A17.49,17.49,0,0,1,1065.252,1665.554Z" transform="translate(-941.401 -1593.68)"/><path class="d" d="M1093.856,1653.118l-90.291-16.873a3.273,3.273,0,0,1-.354-6.348l100.644-30.728,76.1,28.531-79.749,25.039A13.139,13.139,0,0,1,1093.856,1653.118Z" transform="translate(-941.401 -1593.68)"/></g><g transform="translate(2.208 54.365)"><path class="l" d="M1144.523,1591.4l-20.151-13.263-43.793-9.539-37.977-19.413-73.983-102.871-37.246,43.269,74.337,90.306,71.874,17.265a36.352,36.352,0,0,0,8.82,1.278l9.876.2,10.4,1.5,10.389,8.505,4.3,7.935A3.847,3.847,0,0,0,1126.8,1618l.785-.495-6.693-15.19-6.241-7.52,1.737-.307,8.87,6.288,6.124,10.7-1.937,6.049a5.643,5.643,0,0,0,3.026,6.85l1.229.562,3.806-11.056-3.2-16.364,2.438-.231,4.69,16.448-1.427,3.666a4.235,4.235,0,0,0,2.184,5.386l2.438,1.115,4.058-8.87Z" transform="translate(-778.665 -1260.031)"/><path class="r" d="M1042.6,1549.184,970.429,1444.21h0a36.2,36.2,0,0,0-13.405-11.692l-25.77-13.06a102.181,102.181,0,0,0-28.416-9.477l-18.832-3.325a105.875,105.875,0,0,0-55.661,5.157l-13.381,5.031a56.006,56.006,0,0,0-36.3,52.424v6.116a342.626,342.626,0,0,0,9.757,81.88c6.677,27.135,12.8,98.671,1.227,126.922,0,0,87.756-86.593,191.947-122.842,2.7-.939-.555-11.424-.555-11.424l24.669,29.968,7.555,2.34a70.654,70.654,0,0,1,34.162-30.667Z" transform="translate(-778.665 -1260.031)"/><path class="l" d="M857.455,1346.95s4.725,33.346-5.019,60.473c0,0,28.038,48.87,48.41,59.121,19.2,9.662,19.906-83.636,19.906-83.636Z" transform="translate(-778.665 -1260.031)"/><path class="s" d="M793.687,1590.071c3.477,32.3,4.169,74.084-4.038,94.115,0,0,20.529-20.257,53.516-45.276q-.867-1.275-1.778-2.519c-6.124-8.323-14.243-15.565-16.858-26.023-2.119-8.472.739-17.572,5.667-24.78s11.76-12.865,18.5-18.42c-6.148-1.636-12.1,3.158-16.023,8.168s-7.519,10.941-13.523,13.044a33.418,33.418,0,0,1,18.329-31.608c-10.285-4.117-19.119,16.617-28.93,11.472a31.914,31.914,0,0,1,9.161-24.418c2.52-2.516,5.491-4.632,7.509-7.566s2.863-7.1.774-9.985a48.163,48.163,0,0,1-20.575,7.951,77.313,77.313,0,0,1,9.164-30.795c-5.393-3.494-10.994,7.507-17.2,5.849-4.354-1.163-4.564-7.743-1.718-11.237s7.333-5.171,10.784-8.068,5.708-8.456,2.659-11.774c-5.626,3.789-14.59.194-16.039-6.433-1.2-5.476,2.054-10.8,3.674-16.167,1.435-4.754,1.6-9.783,2.282-14.7a68.212,68.212,0,0,1,5.516-18.831,55.949,55.949,0,0,0-6.976,5.264l-.04.035q-.635.564-1.252,1.145l-.051.048a56.11,56.11,0,0,0-4.7,5.02l-.03.036c-.325.393-.643.793-.957,1.2-.071.09-.141.18-.211.271q-.442.573-.869,1.157c-.076.1-.15.208-.225.312-.285.4-.568.794-.843,1.2l-.09.136q-1.3,1.917-2.434,3.941c-.1.17-.193.338-.287.509-.191.349-.377.7-.561,1.054-.112.216-.224.431-.333.648q-.256.507-.5,1.018c-.116.24-.228.482-.339.724-.153.331-.307.661-.453.995-.119.27-.231.543-.345.815q-.318.756-.614,1.521c-.139.362-.281.723-.413,1.089-.1.283-.2.57-.3.856-.113.33-.227.661-.335.994q-.138.43-.269.864c-.105.342-.206.684-.3,1.029-.08.28-.159.56-.234.842-.1.374-.194.749-.287,1.126-.062.255-.127.509-.186.765q-.177.768-.331,1.543c-.025.123-.054.244-.078.367-.123.633-.233,1.27-.334,1.909-.035.221-.064.443-.1.664-.064.437-.125.874-.179,1.314-.03.25-.057.5-.084.751q-.069.633-.123,1.269-.033.373-.06.747c-.033.454-.058.91-.08,1.366-.01.215-.023.43-.031.646-.024.67-.039,1.341-.039,2.016v6.116a342.626,342.626,0,0,0,9.757,81.88C791.136,1568.292,793.742,1579.383,793.687,1590.071Z" transform="translate(-778.665 -1260.031)"/><path class="l" d="M866.031,1570.57l118.657,13.9,51.5-11.227,27.742,4.277,15.848,22.99v11.35h-3.119a4.926,4.926,0,0,1-4.918-4.641l-.266-4.57-12.925-15.132-2.468,1.425,11.306,15.765,1.325,13.541h-1.572a6.565,6.565,0,0,1-6.518-5.783l-.879-7.338-11.662-8.359-12.429-2.359-1.69,1.165,10.245,4.936,14.435,12.832-.59.9a4.476,4.476,0,0,1-6.439,1.127l-8.388-6.315-15.111-3.969-11.729,3.442-10.547,4.569a42.335,42.335,0,0,1-24.625,2.762l-2.607-.489-144.985,9.243S817.509,1585.006,866.031,1570.57Z" transform="translate(-778.665 -1260.031)"/><path class="i" d="M852.436,1407.423s20.393,35.541,39.032,52.362a50.567,50.567,0,0,0,.734-13.153c-1.361-12.507-10.783-23.146-11.632-35.7-.69-10.189,4.391-19.9,5.186-30.083a38.954,38.954,0,0,0-4.059-20.13l-24.242-13.772S862.18,1380.3,852.436,1407.423Z" transform="translate(-778.665 -1260.031)"/><path class="l" d="M945.7,1309.782a87.9,87.9,0,0,1,3.439,16.528,25.606,25.606,0,0,1-1.365,10.9,42.248,42.248,0,0,0-2.084,17.5,21.36,21.36,0,0,1-2.017,11.336l-16.618,33.938a8.985,8.985,0,0,1-8.54,5.018c-13.247-.683-44.14-4.8-49.439-28.2,0,0-4.13-16.255-8.178-22.944a52.567,52.567,0,0,1-6.382-16.625c-2.916-14.13-4.573-36.052,7.779-51.324,0,0,21.251-30.751,54.958-12.06A61.012,61.012,0,0,1,945.7,1309.782Z" transform="translate(-778.665 -1260.031)"/><path class="i" d="M911.707,1396.49c.43-7.061-4.418-13.375-5.41-20.379-1.285-9.085,4.03-18.2,2.475-27.246-1.281-7.445-7.037-13.574-8.114-21.052-.9-6.255,1.6-12.423,3.371-18.489s2.716-13.086-.84-18.311l-21.067-19.765a18.281,18.281,0,0,1-3.711.941,48.493,48.493,0,0,0-16.115,13.725c-12.352,15.272-10.7,37.194-7.779,51.324a52.567,52.567,0,0,0,6.382,16.625c4.048,6.689,8.178,22.944,8.178,22.944,4.246,18.75,24.926,25.118,39.792,27.26A14.123,14.123,0,0,0,911.707,1396.49Z" transform="translate(-778.665 -1260.031)"/><path class="a" d="M851.718,1292.5c3.4-7.741,7.871-15.158,14.15-20.819,11.294-10.183,27.788-13.65,42.676-10.552,11.9,2.477,25.2,7.655,31.128,19.02a17.167,17.167,0,0,1,1.708,12.336,26.954,26.954,0,0,1-2.178,5.055c-1.392,2.707-2.959,5.59-5.693,6.929a14.329,14.329,0,0,1-6.337.975c-10,.017-21.993-1.48-30.5-7.237-1.335-.9-2.744-1.966-4.354-1.885-2.309.116-3.839,2.573-4.114,4.869s.274,4.624.063,6.926c-.61,6.652-7.147,11.2-9.306,17.522-1.6,4.683-.636,9.844-1.441,14.727l-6.641-12.41c-1.3-2.436-2.986-5.151-5.72-5.554a5.821,5.821,0,0,0-5.493,2.918,12.867,12.867,0,0,0-1.585,6.315c-.265,6.26,1.191,12.445,2.006,18.658s.931,12.8-1.809,18.435c1.546-14.048-8.619-26.535-11.691-40.329C843.918,1316.4,846.775,1303.753,851.718,1292.5Z" transform="translate(-778.665 -1260.031)"/><path class="i" d="M1039.768,1605.52c-7.1-3.926-15.8-3.651-23.737-1.949s-15.57,4.709-23.587,5.962c-8.94,1.4-18.054.57-27.1.514-31.975-.2-64.8,9.175-95.377-.164-12.432-3.8-25.173-10.64-37.628-10.078a42.972,42.972,0,0,0,1.283,24.811l144.985-9.243,2.607.489a42.335,42.335,0,0,0,24.625-2.762l10.547-4.569,11.729-3.442,15.111,3.969,4.183,3.149A24.949,24.949,0,0,0,1039.768,1605.52Z" transform="translate(-778.665 -1260.031)"/></g><path class="t" d="M1483.464,1654.008c.4-9.5,55.623-9.12,64.346-4.792,10.036,4.981,26.665,15.389,18.325,28.453-3.349,5.247-9.606,8.153-15.813,8.619-5.467.411-11.116-.832-16.369.738-3.275.978-6.165,3-9.445,3.958-9.685,2.84-19.486-4.114-26.075-11.761a88.249,88.249,0,0,1-14.737-24A2.859,2.859,0,0,1,1483.464,1654.008Z" transform="translate(-883.25 -1208.665)"/><g transform="translate(564.358 370.363)"><g transform="translate(52.867 11.957)"><path class="k" d="M1540.3,1640.266a31.356,31.356,0,0,0,14.355-26.407V1600.5a6.5,6.5,0,0,0-9.746-5.632l-8.379,4.829,3.648,6.329,7.172-4.133v11.97a24.073,24.073,0,0,1-11.023,20.276Z" transform="translate(-1536.329 -1593.985)"/></g><path class="k" d="M1540.617,1590.792l-.06,62.638c-.919,4.586-13.332,8.219-28.517,8.219s-27.6-3.633-28.517-8.219l-.061-62.638Z" transform="translate(-1483.462 -1582.029)"/><path class="u" d="M1506.817,1661.5a60.552,60.552,0,0,1-16.658-2.988v-67.718h16.658Z" transform="translate(-1483.462 -1582.029)"/><ellipse class="u" cx="28.577" cy="8.763" rx="28.577" ry="8.763" transform="translate(0)"/><path class="a" d="M1484.883,1590.5c0,4.436,12.158,8.032,27.157,8.032s27.156-3.6,27.156-8.032-12.158-8.032-27.156-8.032S1484.883,1586.06,1484.883,1590.5Z" transform="translate(-1483.462 -1582.029)"/></g><g transform="translate(433.613 0)"><path class="a" d="M1307.793,1440.256l-13.066,86.66a32.462,32.462,0,0,0,12.647,30.639l55.815,1.179-8.085-16.673L1333.68,1524.3l17.037-78.164Z" transform="translate(-1294.388 -1205.665)"/><path class="v" d="M1306.266,1543.584c-3.6-4-5.8-8.575-4.945-14.454,0,0,29.806-68.83,16.721-86.568-1.625-2.2-10.882-1.188-10.882-1.188l-12.434,85.542a32.465,32.465,0,0,0,12.648,30.639l55.815,1.179.086-4.077-30.937-.064C1322.522,1554.572,1312.835,1550.879,1306.266,1543.584Z" transform="translate(-1294.388 -1205.665)"/><path class="a" d="M1568.013,1445.752l9.4,87.135a32.46,32.46,0,0,1-13.931,30.078l-49.052-1.3,2.02-16.2,22.154-16.845-13.72-78.814Z" transform="translate(-1294.388 -1205.665)"/><path class="v" d="M1565.393,1548.305c3.657-3.468,5.938-7.574,5.333-13.484,0,0-26.873-70.027-13.051-87.2,1.716-2.131,10.923-.727,10.923-.727l8.81,85.99a32.462,32.462,0,0,1-13.931,30.078l-49.052-1.3.095-4.49,24.939.526C1548.972,1557.905,1558.489,1554.852,1565.393,1548.305Z" transform="translate(-1294.388 -1205.665)"/><path class="a" d="M1412.419,1316.17s.945,13.19-.461,21.816l-56.587,24.753c-9.695,1.99-2.893,105.07-2.893,105.07l158.7,3.352s19.333-106.987,9.164-110.144l-52.86-23.713-3.368-21.978Z" transform="translate(-1294.388 -1205.665)"/><path class="v" d="M1412.394,1418.154c11.619-9.371,14.168-50.49,14.168-50.49,4.631-25.988,22.117-43.383,22.117-43.383l15.634-7.651-.2-1.3-51.694.844s.945,13.19-.461,21.816l-56.587,24.753c-9.695,1.99-2.893,105.07-2.893,105.07l34.9.737S1404.689,1424.368,1412.394,1418.154Z" transform="translate(-1294.388 -1205.665)"/><path class="w" d="M1419.027,1366.257l-12.7-27.115-68.6,14.083a25.51,25.51,0,0,0-19.676,19.032l-14.6,93.749c13.974-2.033,41.032-1.957,48.909,7.314,3.4,4.005.157,15.513.157,15.513l11.746,29.308,137.729,7.238,18.367-54.024s27.963-8.982,51.264-3.834l-11.926-88.153a28.553,28.553,0,0,0-19.632-22.187l-68.242-18.687-14.591,28.448A21.281,21.281,0,0,1,1419.027,1366.257Z" transform="translate(-1294.388 -1205.665)"/><path class="x" d="M1557.423,1465.946a72.283,72.283,0,0,1,14.2,1.575l-11.926-88.153a28.553,28.553,0,0,0-19.632-22.187l-33.682-9.223q1.725,1.464,3.527,2.834c9.306,7.041,20.863,13,24.542,24.079a22.058,22.058,0,0,1-8.4,24.553l17.086,5.757a7.747,7.747,0,0,1,3.314,1.764c2.9,3.1-.67,7.873-3.992,10.506,4.828,1.644,9.652,4.049,12.632,8.19s3.526,10.37.09,14.14c-1.461,1.6-3.482,2.637-4.839,4.328-3.887,4.843,1.506,13.448,7.56,12.062l-8.632,6.438A49.627,49.627,0,0,1,1557.423,1465.946Z" transform="translate(-1294.388 -1205.665)"/><path class="x" d="M1303.992,1462.543l2.25-14.448,21.2,14.006C1319.616,1461.311,1311.569,1460.548,1303.992,1462.543Zm33.736-109.318a25.51,25.51,0,0,0-19.676,19.032l-11.779,75.642c3.782-.785,7.882-1.845,10.059-5.015,2.225-3.24.2-9.08-3.7-8.585-1.752-1.994-.828-5.219.892-7.241s4.094-3.445,5.633-5.609c4.747-6.677-.585-15.972.789-24.049,1.757-10.34,13.542-15.577,18.843-24.627,2.285-3.9,3.317-8.464,5.827-12.224,9.488-14.212,32.447-9.132,46.648-18.314Z" transform="translate(-1294.388 -1205.665)"/><path class="l" d="M1308.758,1431.936h258.053l4.814,35.585c-23.3-5.148-51.264,3.834-51.264,3.834l-11.338,33.349H1358.88l-6.361-15.871s3.246-11.508-.157-15.513c-7.877-9.271-34.935-9.347-48.909-7.314Zm2.98-19.136-1.49,9.568h255.268l-1.294-9.568Z" transform="translate(-1294.388 -1205.665)"/><path class="y" d="M1510.638,1464.984s3.957-5.774,3.982-7.151,3.985-33.913,3.985-33.913l7.327,42.011Z" transform="translate(-1294.388 -1205.665)"/><path class="y" d="M1367.977,1461.97s-3.71-5.935-3.678-7.313-2.549-34.05-2.549-34.05l-9.094,41.664Z" transform="translate(-1294.388 -1205.665)"/><path class="l" d="M1390.814,1253.015a60.778,60.778,0,0,1,1.525-13.87c1.55-6.884,6.708-14.462,11.735-19.415,4.178-4.116,2.577-3.746,7.463-6.989,8.585-5.7,23.158-7.736,33.405-6.893a57.332,57.332,0,0,1,12.78,2.9c.96.31,11.475,7.132,9.5,8.076,4.666-2.237,10.347.147,14.126,3.683,12,11.218,2.133,30.383.318,43.7-1.993,14.62,3.894,35.475-8.667,46.414-5.819,5.066-13.593,7.322-21.25,8.269s-15.418.728-23.087,1.574c-5.594.617-11.213,1.8-16.8,1.126s-11.336-3.7-13.3-8.975a27.579,27.579,0,0,1-1.146-7.266C1395.848,1287.718,1390.95,1270.814,1390.814,1253.015Z" transform="translate(-1294.388 -1205.665)"/><path class="a" d="M1438.571,1351.657h0a39.031,39.031,0,0,0,39.848-38.2l-2.539-26.779,3.106-37.384-77.18-5.372,1.324,43.806-2.758,24.081A39.031,39.031,0,0,0,1438.571,1351.657Z" transform="translate(-1294.388 -1205.665)"/><path class="v" d="M1421.82,1317.107l-8.6-23.089,5.105-18.008L1429,1258.949l-27.479-1.625,1.607,30.405-2.758,24.081a39.031,39.031,0,0,0,38.2,39.847c1.31.028,2.6-.015,3.884-.114C1422.766,1349.178,1421.392,1337.349,1421.82,1317.107Z" transform="translate(-1294.388 -1205.665)"/><path class="l" d="M1393.857,1250.2c1.7-6.864,12.209-14.016,19.432-16.341,8.438-2.714,17.441-3.019,26.3-3.037a64.5,64.5,0,0,1,13.486.988c5.358,1.133,10.36,3.511,15.3,5.868,4.283,2.041,9.576,3.185,12.091,7.381s2.375,10.68,1.069,15.215c-.937,3.257-2.608,6.265-3.545,9.522-2.124-.338-3.553-2.291-4.742-4.084a77.044,77.044,0,0,0-14.289-15.873,8.636,8.636,0,0,0-3.091-1.982c-1.933-.568-3.979.236-5.81,1.074-7.735,3.541-15.075,7.979-23.081,10.857s-17.02,4.091-24.954,1.022C1394.825,1258.023,1392.875,1254.159,1393.857,1250.2Z" transform="translate(-1294.388 -1205.665)"/><path class="l" d="M1478.442,1319.333a69.272,69.272,0,0,0,.695-23.923c-3.065,4.11-4.318,9.271-6.764,13.778s-6.965,8.662-12.046,7.971c-6.03-.819-9.165-7.671-14.452-10.689a15.744,15.744,0,0,0-10.759-1.434,31.857,31.857,0,0,0-10.171,4.267c-4.051,2.435-8.533,5.436-13.1,4.223-2.976-.79-5.237-3.282-6.644-6.02s-2.122-5.768-3.124-8.68a1.871,1.871,0,0,0-1.194-1.391c-4.387,8.414-3.191,21.646-.338,30.335a40.075,40.075,0,0,0,19.187,23.109c7.036,3.625,15.135,4.837,23.042,4.51,5.574-.231,11.225-1.239,16.115-3.922,7.188-3.942,12.067-11.134,15.32-18.659A68.689,68.689,0,0,0,1478.442,1319.333Z" transform="translate(-1294.388 -1205.665)"/><g transform="translate(9.604 207.135)"><path class="z" d="M1306.273,1447.9c3.782-.785,7.882-1.845,10.059-5.015,2.225-3.24.2-9.08-3.7-8.585a3.846,3.846,0,0,1-.927-2.363h-2.946Z" transform="translate(-1303.992 -1412.8)"/><path class="z" d="M1306.242,1448.095l-2.25,14.448c7.577-1.995,15.624-1.232,23.445-.442Z" transform="translate(-1303.992 -1412.8)"/><path class="z" d="M1310.248,1422.368h8.165a11.015,11.015,0,0,0,.743-.919c1.826-2.568,2.158-5.524,1.957-8.649h-9.375Z" transform="translate(-1303.992 -1412.8)"/></g><g transform="translate(253.793 207.135)"><path class="z" d="M1569.345,1447.9c-3.783-.785-7.882-1.845-10.06-5.015-2.225-3.24-.2-9.08,3.7-8.585a3.839,3.839,0,0,0,.927-2.363h2.946Z" transform="translate(-1548.181 -1412.8)"/><path class="z" d="M1569.375,1448.095l2.25,14.448c-7.576-1.995-15.623-1.232-23.444-.442Z" transform="translate(-1548.181 -1412.8)"/><path class="z" d="M1565.369,1422.368H1557.2a10.632,10.632,0,0,1-.743-.919c-1.826-2.568-2.159-5.524-1.958-8.649h9.375Z" transform="translate(-1548.181 -1412.8)"/></g><g transform="translate(33.302 215.95)"><path class="r" d="M1540.588,1566.385l-202.092-4.269a3.824,3.824,0,0,1-3.742-3.9l-7.064-132.854a3.824,3.824,0,0,1,3.9-3.742l221.823,4.685a3.825,3.825,0,0,1,3.743,3.9l-12.668,132.438A3.823,3.823,0,0,1,1540.588,1566.385Z" transform="translate(-1327.69 -1421.615)"/><path class="aa" d="M1455.706,1494.414a14.685,14.685,0,1,1-14.372-14.991A14.686,14.686,0,0,1,1455.706,1494.414Z" transform="translate(-1327.69 -1421.615)"/></g><g transform="translate(110.227 38.953)"><path class="l" d="M1452.883,1244.813a52.249,52.249,0,0,1-20.468,15.745c-7.627,3.262-21.13,7.4-26.736-1.221-.393-.6-1.367-.042-.971.567,5.526,8.5,17.893,5.566,25.763,2.638a53.219,53.219,0,0,0,23.208-16.933c.443-.563-.348-1.364-.8-.8Z" transform="translate(-1404.615 -1244.618)"/></g><g transform="translate(158.483 39.495)"><path class="l" d="M1453.056,1246.1c4.541,3.908,7.212,9.663,11.278,14.047,3.4,3.669,7.644,6.485,12.689,7.1.717.088.71-1.038,0-1.125-5.589-.681-10-4.374-13.471-8.581-3.278-3.977-5.763-8.848-9.7-12.236-.546-.47-1.345.322-.795.8Z" transform="translate(-1452.871 -1245.16)"/></g><path class="ab" d="M1478.355,1238.593a26.319,26.319,0,0,0-2.394-7.43,10.929,10.929,0,0,1,3.188,1.328c-.485-1.9-.713-3.867-1.305-5.737a8.357,8.357,0,0,0-3.29-4.73,4.442,4.442,0,0,0-5.421.414c-1.657,1.765-1.143,4.788-2.677,6.661-.815.995-2.107,1.525-2.867,2.563-1.236,1.692-.666,4.087-1.324,6.077-.675,2.046-2.666,4-1.818,5.985l2.77,4.587q3.642,3.141,7.283,6.283a18.894,18.894,0,0,0-2.532-7.555,8.368,8.368,0,0,1,5.789,3.531c.852-3.56-.86-7.228-2.945-10.238a10.814,10.814,0,0,1,4.871.939,8.2,8.2,0,0,0-1.18-3.307A6.29,6.29,0,0,1,1478.355,1238.593Z" transform="translate(-1294.388 -1205.665)"/><path class="ab" d="M1462.549,1219.486l-2.082-3.506c-1.544-1.312-3.85-.718-5.875-.672-3.907.088-7.491-2.134-11.356-2.712a13.9,13.9,0,0,0-11.633,3.8c-2.372,2.345-4.192,5.741-7.469,6.366a21.511,21.511,0,0,0,8.91,1.079,12.715,12.715,0,0,1-7.908,8.221,8.378,8.378,0,0,0,7.2.65,24.069,24.069,0,0,1-3.73,7.08c-1.744,2.036-4.392,3.5-7.045,3.119a11.9,11.9,0,0,0,10.027.882,20.461,20.461,0,0,1-20.545,9.283c4.444,3.7,11.148,2.971,16.456.672s10.022-5.921,15.53-7.687c2.6-.834,5.548-1.367,7.262-3.493.762-.944,1.226-2.155,2.207-2.87.725-.529,1.647-.718,2.405-1.2,1.678-1.064,2.183-3.274,2.259-5.26s-.109-4.071.745-5.865C1459.259,1224.533,1463.074,1222.588,1462.549,1219.486Z" transform="translate(-1294.388 -1205.665)"/></g><g transform="translate(570.336 29.237)"><path class="l" d="M1755.07,1259.948a33.3,33.3,0,0,1,1.794-3.293c1.087-1.711,2.215-3.783,1.443-5.658-1.063-2.581-4.589-2.624-7.3-3.278-4.163-1-7.349-4.235-10.495-7.14s-6.882-5.756-11.163-5.675a11.47,11.47,0,0,0-9.031,5.472,20.839,20.839,0,0,0-2.93,10.46c-.48,10.615,10.7,33.148,24.466,28.163C1748.637,1276.538,1751.74,1266.814,1755.07,1259.948Z" transform="translate(-1497.458 -1234.902)"/><g transform="translate(245.69 10.014)"><path class="l" d="M1743.332,1245.946c2.322,2.24,5.75,1.491,8.639,1.2,2.253-.223,4.816-.315,6.507,1.491a6.042,6.042,0,0,1,1.009,7.136,77.144,77.144,0,0,1-7.629,10.325c-1.728,2.107-4.542,4.3-4.05,7.292.126.768,1.293.442,1.168-.322-.4-2.432,2.888-5.056,4.312-6.817q1.761-2.178,3.434-4.426c1.869-2.511,5.138-5.772,4.814-9.188-.265-2.806-2.17-5.7-4.935-6.5-3.778-1.093-9.333,1.916-12.413-1.054-.561-.542-1.419.314-.856.857Z" transform="translate(-1743.148 -1244.916)"/></g><path class="ac" d="M1753.316,1254.081c-2.706-.052-4.938-2.1-6.609-4.232s-3.159-4.541-5.51-5.883c-1.938-1.106-4.269-1.358-6.223-2.435a15.522,15.522,0,0,1-4.866-4.989c-.377-.538-.756-1.081-1.144-1.616a9.557,9.557,0,0,0-2.931.658,24.139,24.139,0,0,1,4.659,6.773,19.98,19.98,0,0,0-7.207-.924,9.583,9.583,0,0,1,4.316,3.119c-2.919-.515-6.245-.936-8.562.911a5.7,5.7,0,0,0-1.481,1.815,28.775,28.775,0,0,0-.374,3.558,23.3,23.3,0,0,0,.732,6.3c.036.06.067.124.1.183a5.919,5.919,0,0,0,4.113,2.826l.54-.371a24.436,24.436,0,0,1-2.636-6.544c-.417-1.722-.535-3.815.8-4.983,1.37-1.2,3.67-.668,4.865.708a7.956,7.956,0,0,1,1.553,5.124,29.494,29.494,0,0,0,.22,5.452,11.658,11.658,0,0,0,4.7,6.732,32.232,32.232,0,0,0,7.477,3.769,22.659,22.659,0,0,1-5.927-15.48c1.126,2.318,2.318,4.719,4.347,6.309,1.271,1,2.8,1.616,4.072,2.618,2.684,2.125,3.8,5.618,4.772,8.9.493-1.672-.356-3.4-.932-5.047a33.317,33.317,0,0,1-1.377-9.4,6.064,6.064,0,0,0,5.913,5.182,10.886,10.886,0,0,1-4.429-9.84A9.25,9.25,0,0,0,1753.316,1254.081Z" transform="translate(-1497.458 -1234.902)"/><path class="k" d="M1642.366,1529.827l-8.814,7.483a15.949,15.949,0,0,1-7.377,3.517l-12.058,2.265-10.3,1.2a38.166,38.166,0,0,0-10.722,2.87l-23.263,10.039,51.984,15.842,35.9-8.575,8.829-27.732Z" transform="translate(-1497.458 -1234.902)"/><path class="v" d="M1583.332,1561.312l38.485,11.728,35.9-8.575,8.829-27.732-16.059-4.588a30.416,30.416,0,0,0-2.492,5.336c-6.392,15.3-23.746,25.2-40.167,22.906-4.62-.644-9.142-2.142-13.806-2.142A20.889,20.889,0,0,0,1583.332,1561.312Z" transform="translate(-1497.458 -1234.902)"/><path class="l" d="M1497.848,1543.2l22.634,25.162a25.719,25.719,0,0,0,12.52,7.657l92.276,24.506a2.854,2.854,0,0,0,3.015-4.473l-15.161-20.182a10.782,10.782,0,0,0-5.547-3.859l-108.536-34.256S1496.509,1541.711,1497.848,1543.2Z" transform="translate(-1497.458 -1234.902)"/><path class="a" d="M1499.3,1540.05l22.634,25.162a25.715,25.715,0,0,0,12.52,7.657l92.275,24.506a2.854,2.854,0,0,0,3.015-4.473l-15.16-20.181a10.783,10.783,0,0,0-5.547-3.86l-107.7-32.039A1.984,1.984,0,0,0,1499.3,1540.05Z" transform="translate(-1497.458 -1234.902)"/><path class="d" d="M1627.5,1596.024a1.517,1.517,0,0,1-.393-.054l-92.275-24.506a24.2,24.2,0,0,1-11.812-7.224l-22.634-25.162a.483.483,0,0,1-.1-.558.532.532,0,0,1,.462-.333.638.638,0,0,1,.18.029l107.7,32.038a9.4,9.4,0,0,1,4.8,3.34l15.16,20.181a1.333,1.333,0,0,1,.141,1.454A1.392,1.392,0,0,1,1627.5,1596.024Z" transform="translate(-1497.458 -1234.902)"/><path class="r" d="M1803.193,1413.275q.547.282,1.1.57a54.741,54.741,0,0,1,28.054,60.255c-11.967,54.214-31.216,182.557,5.575,207.642l-23.526-17.178c-13.084-16.476-29.064-26.019-43.128-35.86l-87.044-32.952-1.21-8.91a15.766,15.766,0,0,0-2.415-12.382c-2.051-2.967-4.7-6.9-7.473-11.277a23.578,23.578,0,0,1-1.717-21.886c9.71-22.7,29.708-74.861,19.351-97.9,0,0-1.248-18.736,8.422-22.967l46.764-12.919A79.082,79.082,0,0,1,1803.193,1413.275Z" transform="translate(-1497.458 -1234.902)"/><path class="s" d="M1715.554,1602.772c-1.968-5.438-6.4-10.368-12.124-11.221-1.13-2.116.433-4.756,2.429-6.088s4.425-1.946,6.318-3.421,3.055-4.433,1.49-6.252c-2.21-2.568-6.2-.071-9.075,1.729-5.778,3.622-13.18,3.847-19.778,2.126-.69-.18-1.372-.383-2.05-.6a15.781,15.781,0,0,1,.246,7.8l1.21,8.91,32.668,12.367A28.592,28.592,0,0,0,1715.554,1602.772Z" transform="translate(-1497.458 -1234.902)"/><path class="k" d="M1750.289,1595.273l-59.2-1.442a30.132,30.132,0,0,1-6.837-.958l-43.178-11.224a12.245,12.245,0,0,1-6.617-4.373l-1.683-2.183a9.57,9.57,0,0,0-3.933-3.006l-28.571-11.781a19.438,19.438,0,0,0-7.413-1.469h-4.211a5.374,5.374,0,0,0-5.373,5.373h0a2.137,2.137,0,0,0,1.122,1.881l15.661,8.46v.326a8.808,8.808,0,0,1-7.248,8.669l-3.753.675-21.515-2.238c-1.216-.127-3.259,2.369-4.433,2.03l-13.812-3.668,9.751,10.059,9.8,3.61a18.3,18.3,0,0,1,6.095,3.731l14.117,13.039h0a12.978,12.978,0,0,0,12.034,5.475l35.928-3.876,114.712,34.09,21.755-30.219Z" transform="translate(-1497.458 -1234.902)"/><path class="v" d="M1766.957,1625.314a11.225,11.225,0,0,0-6.878-2.777c-3.414-.065-6.544,1.713-9.707,3-11.911,4.851-25.415,2.922-37.974.151a316.834,316.834,0,0,1-55.1-17.565c-8.476-3.583-17.234-7.621-26.417-7.032-6.95.446-13.589,3.545-20.553,3.492-8.1-.061-15.476-4.33-23.148-6.93a29.834,29.834,0,0,0-14.242-1.509,18.348,18.348,0,0,1,2,1.6l14.117,13.039a12.978,12.978,0,0,0,12.034,5.475l35.928-3.876,114.712,34.09Z" transform="translate(-1497.458 -1234.902)"/><path class="r" d="M1793.943,1466.682l-20.463,126.466-23.191,2.125s17.245,33.125,1.436,51.2l46,12.449a23.774,23.774,0,0,0,29.649-18.937c7.206-42.166,20.156-125.761,17.96-170.4a25.9,25.9,0,0,0-20.391-24.066h0A25.875,25.875,0,0,0,1793.943,1466.682Z" transform="translate(-1497.458 -1234.902)"/><path class="r" d="M1692.873,1427.815l-40.078,92.946-10.429,9.066s22.61,10.652,15.346,34.638l21.989-12.695a20.989,20.989,0,0,0,8.837-10l37.535-88.7Z" transform="translate(-1497.458 -1234.902)"/><path class="k" d="M1743.232,1345.641s-2.438,53.1,15.419,59.443c0,0-20.481,33.85-39.128,63.465,0,0,1.165-45.242-16.843-52.016l-5.164-48.228Z" transform="translate(-1497.458 -1234.902)"/><path class="v" d="M1743.232,1345.641l-28.134,13.948a71.741,71.741,0,0,0-1.287,16.679c.1,5.175.473,10.517,2.814,15.133,4.8,9.465,17.247,14.835,18.277,25.4.64,6.561-3.55,12.468-6.036,18.574a37.66,37.66,0,0,0-1.922,21.329c16.271-26.1,31.707-51.616,31.707-51.616C1740.794,1398.738,1743.232,1345.641,1743.232,1345.641Z" transform="translate(-1497.458 -1234.902)"/><path class="k" d="M1646.978,1313.749s-9.086,14.2-5.386,39.925a19.618,19.618,0,0,0,3.754,8.951l2.894,3.858c1.344,1.791,2.73,3.816,2.707,6.055-.168,16.36,11.777,23.637,11.777,23.637a194.577,194.577,0,0,1,15.086,14.884,21.617,21.617,0,0,0,27.629,4.016c14.351-8.973,25.625-18.2,25.625-24.559,0,0-4.93-23.749,7.848-35.451a13.091,13.091,0,0,0,3.735-13.549c-4.57-14.628-16.368-41.435-42.411-46.643C1700.236,1294.873,1677.222,1293.8,1646.978,1313.749Z" transform="translate(-1497.458 -1234.902)"/><path class="v" d="M1700.236,1294.873s-11.191-.519-28.218,5.928l-10.717,19.452c-4.116,6.7-1.081,15.531,3.332,22.042s10.25,12.411,12.155,20.042c1.107,4.431.915,9.47,3.822,12.993,1.966,2.383,4.987,3.577,7.493,5.384,5.451,3.931,8.182,10.5,11.738,16.2s9.216,11.223,15.909,10.616q.539-.05,1.06-.148c8.508-6.326,14.254-12.328,14.254-16.865,0,0-4.93-23.749,7.848-35.451a13.091,13.091,0,0,0,3.735-13.549C1738.077,1326.888,1726.279,1300.081,1700.236,1294.873Z" transform="translate(-1497.458 -1234.902)"/><path class="l" d="M1746.249,1299.892a33.913,33.913,0,0,0-8.79-7.92,76.116,76.116,0,0,0-32.174-10.731,56.092,56.092,0,0,0-20.365,1.945c-6.171,1.726-12.7.909-19.023,2.754-2.683.783-5.287,1.811-7.887,2.837-7.191,2.837-18.005,4.792-22.763,11.281-1.843,2.514-2.781,5.561-3.687,8.545-.822,2.709-1.654,5.492-1.465,8.317.419,6.263,6.446,12.71,11.424,16.057,6.053,4.069,15.748,3.218,22.578,2.364,9.178-1.148,15.185-4.715,24-.273,8.951,4.508,9.862,18.319,7.787,27.114,5.789-4.22,7.188-13.006,13.471-16.449a14.852,14.852,0,0,1,5.161-1.56c11.135-1.521,15.869,6.792,18.972,15.96,2.791,8.243,5.211,20.969,14.6,24.083a80.175,80.175,0,0,1-1.169-14.82c.051-3.595.443-7.446,2.746-10.208,1.992-2.389,5.1-3.563,7.337-5.72,2.967-2.857,4.121-7.2,3.985-11.315-.3-9.038-3.551-19.931-6.9-28.313A55.387,55.387,0,0,0,1746.249,1299.892Z" transform="translate(-1497.458 -1234.902)"/><path class="l" d="M1756.812,1276.494a15.7,15.7,0,0,0-3.982-6.855c-5.3-4.708-13.766-1.9-20.5-4.123-3.546-1.169-6.451-3.69-9.338-6.057s-6.007-4.706-9.678-5.386-8.014.832-9.4,4.3l-2.745,8.355c-4.069,2.574-4.779,8.26-4.027,13.016a33.53,33.53,0,0,0,50.73,23.3c4.883-3.014,9.112-7.569,10.367-13.168C1759.235,1285.442,1758.289,1280.792,1756.812,1276.494Z" transform="translate(-1497.458 -1234.902)"/><g transform="translate(248.111 106.444)"><path class="l" d="M1747.259,1376.946c.359-4.38-1.5-9.026-.03-13.3,1.577-4.581,6.357-4.316,10.013-6.189a10.53,10.53,0,0,0,3.351-15.858c-.47-.609-1.523-.007-1.047.611a9.328,9.328,0,0,1-.335,12.278c-2.571,2.686-6.21,2.715-9.331,4.344-6.872,3.588-3.343,12.143-3.832,18.113-.064.777,1.148.773,1.211,0Z" transform="translate(-1745.569 -1341.347)"/></g><g transform="translate(247.776 133.404)"><path class="l" d="M1745.257,1369c.949,3.448,1.973,8.893,5.539,10.693,2.316,1.169,5.413-.457,4.9-3.213-.132-.711-1.216-.41-1.084.3l-.952,1.885-1.247.345a3.578,3.578,0,0,1-2.1-1.034,8.833,8.833,0,0,1-1.753-2.673,41.579,41.579,0,0,1-2.214-6.6.563.563,0,0,0-1.085.3Z" transform="translate(-1745.234 -1368.307)"/></g><g transform="translate(249.98 31.927)"><path class="l" d="M1749.116,1303.578c2.531-3.473,6.239-5.845,8.176-9.776a34.052,34.052,0,0,0,3.218-10.51c.947-7.938-6.2-12.828-12.169-16.374a.606.606,0,0,0-.612,1.046c6.633,3.94,13.32,8.908,11.1,17.57-.855,3.338-1.82,6.935-3.83,9.778-1.995,2.823-4.889,4.856-6.928,7.654-.46.631.591,1.236,1.046.612Z" transform="translate(-1747.439 -1266.829)"/></g><g transform="translate(229.089 108.224)"><path class="l" d="M1726.635,1344.03c6.733,11.426-.675,30.277,12.846,37.9a.606.606,0,0,0,.611-1.046c-6.772-3.821-8.09-11.895-8.536-18.981-.4-6.358-.551-12.847-3.875-18.489a.606.606,0,0,0-1.046.612Z" transform="translate(-1726.547 -1343.127)"/></g><g transform="translate(202.725 16.949)"><path class="l" d="M1701.639,1267.558c.9-4.294-2.817-12.652,3.23-14.249,4.86-1.284,9.26,2.954,13.894,3.689.762.121,1.091-1.047.322-1.169-5.023-.8-9.951-5.555-15.279-3.441-6.184,2.454-2.354,10.189-3.335,14.848-.16.761,1.007,1.086,1.168.322Z" transform="translate(-1700.183 -1251.851)"/></g><g transform="translate(217.271 0.237)"><path class="l" d="M1718.081,1255.233a14.042,14.042,0,0,1-.188-14.6c2.881-4.894,8.6-4.647,13.528-3.846.762.123,1.09-1.044.322-1.169-5.128-.831-11.247-1.129-14.49,3.741a15.288,15.288,0,0,0-.218,16.481c.431.645,1.481.039,1.046-.611Z" transform="translate(-1714.729 -1235.14)"/></g><path class="ac" d="M1750.217,1287.422c-9.3-3.389-18.425-7.658-25.965-14.07a43.965,43.965,0,0,1-13.529-19.4,9.753,9.753,0,0,0-2.755.634q.07,5.118.14,10.236a25.983,25.983,0,0,1-4.81-4.565l-1.388,4.225a39.8,39.8,0,0,0,8.167,11.965,15.827,15.827,0,0,1-10.189-5.347,33.069,33.069,0,0,0,5.825,12.42,54.327,54.327,0,0,1-8.7-4.74c.036.324.079.646.129.964a32.754,32.754,0,0,0,2.912,9.185,55.621,55.621,0,0,0,8.14,6.519c10.857,7.074,25.254,9.679,36.977,4.162a22.717,22.717,0,0,1-21.82-12.251c3.548,2.6,7.159,5.238,11.3,6.743s8.942,1.75,12.8-.368a15.64,15.64,0,0,1-15.02-10.889A22.15,22.15,0,0,0,1750.217,1287.422Z" transform="translate(-1497.458 -1234.902)"/><path class="ac" d="M1712.669,1335.123c6.09-2.773,10.339-8.37,15.584-12.526a38.237,38.237,0,0,1,12.543-6.581c-3.821-2.174-8.7-1.15-12.629.815s-7.428,4.792-11.535,6.357c-2.03.774-4.483,1.17-6.248-.1a3.543,3.543,0,0,0,3.8-.225,12.136,12.136,0,0,0,2.773-2.9,48.522,48.522,0,0,1,11.673-10.685c-5.9,2.344-11.612,5.795-17.958,5.957a18.336,18.336,0,0,1-16.173-9.283,39.754,39.754,0,0,0,14,.962c-2.7-2.146-7.489-.169-9.675-2.838-1.485-1.814-1.34-5.346-3.67-5.608a4.013,4.013,0,0,0-2.462.892,21.8,21.8,0,0,1-8.518,3.474,10.542,10.542,0,0,1-8.634-2.414c2.651.123,5.545.175,7.658-1.431a11.491,11.491,0,0,0,2.564-3.155l4.28-6.776a11.9,11.9,0,0,1-10.02,1.417c2.505-.948,5.32-2.215,6.081-4.784-3.533,1.738-7.131,3.5-11.017,4.132-3.244.53-6.6.259-9.795,1.03-4.073.983-7.767,3.628-11.957,3.657a11.944,11.944,0,0,1-6.348-1.949,46.669,46.669,0,0,0-4.852,2.075,15.445,15.445,0,0,0,10.654,5.3c-2.046,2.746-5.954,3.66-9.267,2.8a14.47,14.47,0,0,1-6.813-4.358c-.2.2-.4.406-.588.616a30.265,30.265,0,0,0,6.01,9.77,21.124,21.124,0,0,1-8.956-4.9c-.573,1.389-1.034,2.835-1.474,4.275,3.317,11.3,11.586,19.8,24.848,19.15,5.022-.246,9.941-1.448,14.875-2.414,3.8-.744,7.877-1.325,11.442.192,3.657,1.554,6.086,5.013,9.188,7.5A20.278,20.278,0,0,0,1712.669,1335.123Z" transform="translate(-1497.458 -1234.902)"/><g transform="translate(239.968 73.322)"><path class="ac" d="M1737.858,1321.135a5.485,5.485,0,0,0,.908.352c-.026-.042-.048-.086-.074-.128C1738.5,1321.044,1737.947,1320.775,1737.858,1321.135Z" transform="translate(-1737.426 -1308.224)"/><path class="ac" d="M1757.453,1340.941c-.5-3.55-2.143-6.821-3.689-10.056-1.992-4.168-3.885-8.488-4.331-13.086-.192-1.975-.13-4.049-1.011-5.827a11.3,11.3,0,0,0-3.581-3.748,43.523,43.523,0,0,1,2.216,7.827c.45,2.964.208,6.218-1.612,8.6-.334-1.431-1.866-2.242-3.3-2.546-1.118-.237-2.292-.293-3.375-.617,2.656,4.391,3.06,10.146,6.757,13.7-2.3.916-4.822-.449-6.918-1.765a11.446,11.446,0,0,1,.263,11.288c-.623,1.13-1.469,2.246-1.441,3.535.031,1.369,1.045,2.516,1.359,3.849.332,1.416-.152,2.877-.44,4.3a16.2,16.2,0,0,0,3.616,13.629l2.195.324c-1.592-6.084.288-13.328,5.555-16.764a44.244,44.244,0,0,0,4.648-2.822C1757.1,1348.455,1757.954,1344.492,1757.453,1340.941Z" transform="translate(-1737.426 -1308.224)"/></g><path class="s" d="M1821.167,1652.358a23.62,23.62,0,0,0,6.206-12.373q.778-4.558,1.537-9.12.235-1.41.474-2.861.409-2.475.811-4.95c2.271-13.975,4.784-30.331,7.11-47.418q.422-3.108.833-6.218.143-1.081.285-2.166.6-4.654,1.182-9.313l.135-1.1.207-1.7c2.32-19.129,4.2-38.345,5.089-55.457q.054-1.07.106-2.137c.014-.3.027-.6.041-.9.685-15.665-.8-30.467-7.345-44.063a25.835,25.835,0,0,0-6.123-4.573,54.917,54.917,0,0,0-4.525-11.407,162.669,162.669,0,0,0-17.793-17.3c-1.491-1.278-4.608-4.381-8.067-6.961a77.679,77.679,0,0,0-9.74-3.9,4.308,4.308,0,0,0-2.457,1.412c-1.79,2.014-1.765,5.033-1.362,7.7,1.626,10.751,7.652,20.339,14.519,28.768,1.855,2.277,3.851,4.639,4.379,7.527.481,2.625-.328,5.288-.848,7.906a37.329,37.329,0,0,0,4.054,25.358c1.82,3.229,4.121,6.176,5.82,9.47s2.779,7.111,1.908,10.714c-.863,3.567-3.512,6.469-4.573,9.983-2.318,7.684,3.333,16.247,8.779,21.2,2.913,2.65,7.347,3.639,9.363,7.023,3.255,5.465-2.122,11.927-7.114,15.87s-10.712,9.851-8.11,15.656c1.549,3.455,5.452,5.039,8.55,7.216s5.685,6.549,3.388,9.559c-4.146-.768-15.195-4.419-16.324,2.77a6.791,6.791,0,0,0,1.427,4.721c2.314,3.4,5.875,5.783,8.294,9.109s3.324,8.5.247,11.233c-5.888,5.223-16.013-5.109-22.486-.631,1.871,3.6,4.935,6.48,6.807,10.084s2.159,8.65-1.016,11.182a3.169,3.169,0,0,1-1.582.736c-1.3.144-2.415-.884-3.2-1.929-2.66-3.569-3.659-8.118-6.034-11.881s-7.272-6.756-11.187-4.638a12.716,12.716,0,0,1,2.714,11.683c-4.724.813-8.892-3.529-10.456-8.06s-1.517-9.5-3.146-14.013c-3.518-9.738-9.436-7.657-10.484.527-.974,7.6-1.036,14.116-4.129,20.83a26.056,26.056,0,0,1-5.611,10.939l42.175,11.414c7.25.412,15.584.949,15.776,1.158q2.409,2.629,4.716,5.519l22.325,16.3C1829.342,1675.192,1824.346,1665.164,1821.167,1652.358Z" transform="translate(-1497.458 -1234.902)"/></g><g transform="translate(288.681 275.822)"><path class="p" d="M1199.891,1627.064l-128.252,41.845a7.757,7.757,0,0,1-9.351-7.591l38.707-171.163c1.663-5.564,4.549-10.155,10.158-10.152l127.758,3.725a7.756,7.756,0,0,1,7.753,7.757l-38.707,125.643C1205.759,1623.434,1204.591,1626.076,1199.891,1627.064Z" transform="translate(-1062.288 -1479.487)"/><path class="r" d="M1202.472,1626.547l-128.252,41.846a7.757,7.757,0,0,1-9.352-7.591l38.708-171.163c1.662-5.565,4.548-10.155,10.157-10.152l127.759,3.725a7.757,7.757,0,0,1,7.753,7.756l-38.708,125.644C1208.339,1622.918,1207.172,1625.56,1202.472,1626.547Z" transform="translate(-1062.288 -1479.487)"/><ellipse class="aa" cx="16.83" cy="11.907" rx="16.83" ry="11.907" transform="matrix(0.371, -0.929, 0.929, 0.371, 87.591, 97.174)"/></g><g transform="translate(454.231 382.998)"><g transform="translate(0 17.367)"><path class="l" d="M1434.975,1653.284a2.115,2.115,0,0,0,.915-4.023l-48.5-23.235a40.97,40.97,0,0,0-32.507-1.206l-8.108,3.169a2.115,2.115,0,1,0,1.54,3.939l8.109-3.169a36.729,36.729,0,0,1,29.138,1.081l48.5,23.235A2.1,2.1,0,0,0,1434.975,1653.284Z" transform="translate(-1345.433 -1622.03)"/></g><g transform="translate(10.107)"><path class="l" d="M1414.229,1671.862a2.114,2.114,0,0,0,2.111-2.04,41.05,41.05,0,0,0-16.574-34.448l-40.851-30.294a2.115,2.115,0,1,0-2.519,3.4l40.85,30.295a36.825,36.825,0,0,1,14.868,30.9,2.116,2.116,0,0,0,2.038,2.19Z" transform="translate(-1355.54 -1604.663)"/></g><path class="ad" d="M1395.182,1652.149l5.956,3.439a23.333,23.333,0,0,0,23.413-.047l7.465-4.35a2.3,2.3,0,0,0,.793-3.223c-6.915-10.812-21.7-16.593-30.848-17.018a3.477,3.477,0,0,0-1.914.471l-4.9,2.856A10.33,10.33,0,0,0,1395.182,1652.149Z" transform="translate(-1345.433 -1604.663)"/><g transform="translate(56.488 26.286)"><path class="ad" d="M1421.467,1637.352l7.129,15.831-4.045,2.358a23.384,23.384,0,0,1-4.215,1.924l-11.437-25.4A47.735,47.735,0,0,1,1421.467,1637.352Z" transform="translate(-1401.921 -1630.95)"/><path class="ad" d="M1401.921,1630.951c.013,0,.026,0,.04,0a31.275,31.275,0,0,1,4.285.524l11.973,26.591a23.411,23.411,0,0,1-3.822.593Z" transform="translate(-1401.921 -1630.95)"/></g><path class="ad" d="M1353.485,1629.589l5.957,3.44a23.331,23.331,0,0,0,23.412-.048l7.466-4.35a2.3,2.3,0,0,0,.792-3.222c-6.915-10.812-21.7-16.593-30.848-17.019a3.48,3.48,0,0,0-1.914.472l-4.9,2.855A10.33,10.33,0,0,0,1353.485,1629.589Z" transform="translate(-1345.433 -1604.663)"/><g transform="translate(14.791 3.727)"><path class="ad" d="M1379.771,1614.793l7.129,15.831-4.046,2.357a23.212,23.212,0,0,1-4.215,1.924l-11.437-25.4A47.74,47.74,0,0,1,1379.771,1614.793Z" transform="translate(-1360.224 -1608.39)"/><path class="ad" d="M1360.224,1608.391c.014,0,.027,0,.04,0a31.428,31.428,0,0,1,4.285.524l11.974,26.591a23.308,23.308,0,0,1-3.822.594Z" transform="translate(-1360.224 -1608.39)"/></g><path class="l" d="M1393.831,1652.751l6.447,3.722a25.252,25.252,0,0,0,25.339-.051l8.079-4.708a2.491,2.491,0,0,0,.858-3.487c-7.483-11.7-23.49-17.958-33.386-18.419a3.76,3.76,0,0,0-2.071.51l-5.305,3.091A11.18,11.18,0,0,0,1393.831,1652.751Zm-2.561-9.333a8.084,8.084,0,0,1,4.044-7.4l5.3-3.091.405-.1s18.424,4.056,26.258,11.4a5.179,5.179,0,0,1-.91,8.261l-2.275,1.325a22.226,22.226,0,0,1-22.306.044l-6.244-3.6A8.389,8.389,0,0,1,1391.27,1643.418Z" transform="translate(-1345.433 -1604.663)"/><path class="l" d="M1352.683,1629.726l6.447,3.722a25.25,25.25,0,0,0,25.338-.052l8.08-4.707a2.493,2.493,0,0,0,.858-3.488c-7.483-11.7-23.491-17.958-33.386-18.419a3.764,3.764,0,0,0-2.072.511l-5.3,3.09A11.181,11.181,0,0,0,1352.683,1629.726Zm-2.561-9.333a8.085,8.085,0,0,1,4.044-7.4l2.532-1.476a7.653,7.653,0,0,1,6-.739c6.293,1.835,20.146,6.533,26.54,13.869a1.807,1.807,0,0,1-.462,2.743l-5.827,3.4a22.231,22.231,0,0,1-22.307.045l-6.243-3.605A8.386,8.386,0,0,1,1350.122,1620.393Z" transform="translate(-1345.433 -1604.663)"/><path class="l" d="M1401.53,1629.8h-2.212a6.057,6.057,0,0,1-5.7-4.019l-.209-.584a11.049,11.049,0,0,0-3.66-2.931l1.517,5.5-.151,1.759,4.032,3.3,7.494-1.232Z" transform="translate(-1345.433 -1604.663)"/></g><g transform="translate(419.111 444.703)"><path class="l" d="M1724.653,1672.065l-2.334,8.1-102.982-29.7-7.929-6.671,10.263-1.425Z" transform="translate(-1611.408 -1642.368)"/><rect class="ae" width="2.808" height="107.178" transform="translate(7.929 8.095) rotate(-73.913)"/><rect class="af" width="2.808" height="107.178" transform="matrix(0.277, -0.961, 0.961, 0.277, 8.707, 5.398)"/><path class="w" d="M1619.337,1650.464l-7.929-6.671,10.263-1.425Z" transform="translate(-1611.408 -1642.368)"/><path class="l" d="M1613.517,1645.567l-2.109-1.774,2.73-.379Z" transform="translate(-1611.408 -1642.368)"/></g></g></svg>