<svg xmlns="http://www.w3.org/2000/svg" width="770.334" height="1098.5" viewBox="0 0 770.334 1098.5"><defs><style>.a{fill:#d1e1f2;}</style></defs><path class="a" d="M974.1,172.331c-13.054,22.07-272.471,182.251-233.455,401.1C755.9,659,875.351,712.737,961.159,797.2c87.955,86.578,142.162,203.029,144.632,216.712,11.071,61.312-37.783,54.734-54.319,111.015-19.018,64.736-174.685,111.322-211.707,126.7-27.1,11.265-67.17.391-101.015,0-5.992-.069-14.642,1.054-20.526,0-3.748-.672-6.62-.182-9.447,0-1.188.072-1.974-1.434-3.587,0-7.974,7.09-213.7,1.723-319.943,0-45.925-.745-45.387-4.277-48.175,0V165.4H978.057C976.747,167.768,975.425,170.088,974.1,172.331Z" transform="translate(-337.073 -165.397)"/></svg>